<svg xmlns="http://www.w3.org/2000/svg" viewBox="0 0 203.92 194.05"><defs><style>.cls-1,.cls-2{fill:#666;}.cls-1{stroke:#666;}.cls-1,.cls-3{stroke-miterlimit:10;stroke-width:1.5px;}.cls-3{fill:#fff;stroke:#000;}</style></defs><g id="图层_2" data-name="图层 2"><g id="图层_6" data-name="图层 6"><path class="cls-1" d="M195.74,42c19.43,22-.55,71.41-44.64,110.28s-95.57,52.5-115,30.46L15.18,159s5.6-75.87,44.64-110.29c39.24-34.59,91.86-43.21,115-30.46Z"/><path class="cls-1" d="M84.32,190.38c3.62-1,7.37-2.23,11.16-3.65l-47.59-54-8.09,7.13Zm23.29-8.81c3.26-1.57,6.55-3.26,9.85-5.13L65.37,117.35l-8.09,7.13Zm20.64-11.81q4.45-2.94,8.89-6.23L82.84,102l-8.09,7.13ZM55.19,192.57a57.2,57.2,0,0,0,14.74.41L30.42,148.16l-8.09,7.14Zm137.05-91.14c1.88-3.58,3.61-7.14,5-10.62L152.74,40.32l-8.09,7.13ZM147,155.76c1.38-1.15,2.77-2.26,4.13-3.46s2.64-2.45,4-3.67L100.32,86.54l-8.09,7.13ZM162.12,32.05l39.52,44.82a57.08,57.08,0,0,0,1.44-14.68L170.22,24.92ZM179.27,122c2.27-3,4.36-6.09,6.33-9.13L135.27,55.73l-8.09,7.13ZM164,139.85c2.54-2.66,5-5.33,7.29-8l-53.5-60.69-8.09,7.14Z"/><path class="cls-1" d="M174.82,18.29c19.43,22-.55,71.42-44.63,110.28S34.62,181.08,15.18,159s.55-71.42,44.64-110.29S155.39-3.75,174.82,18.29Z"/><path class="cls-1" d="M168.17,24.16c17.81,20.2-.51,65.46-40.91,101.09S39.65,173.38,21.83,153.17s.51-65.46,40.92-101.09S150.36,4,168.17,24.16Z"/><path class="cls-1" d="M159,32.22c15.59,17.68-.44,57.28-35.8,88.46S46.57,162.79,31,145.11s.44-57.28,35.8-88.46S143.44,14.54,159,32.22Z"/><path class="cls-2" d="M53.1,137.37c.14.17.58.25,1.38,0a5.8,5.8,0,0,0,.81-.29,11.65,11.65,0,0,0,3-1.9c12.26-10.46,24.78-24,35.93-37.72.42-.5.83-1,1.23-1.52l1.91.39,9.17,1.9L84.64,129.77l14,3.58,58.27-80.94-14.65-2-21,28.37-9.56-1.42-2-.28c.38-.55.76-1.08,1.13-1.6C124,56.91,132.5,41.35,131.59,37.34c-.09-.34-.21-.37-.29-.39-5.47-1.43-26.9,22.1-39.12,37.27l-.34.41L64.52,69.11,49.75,87.32l29.07,5.77L78,94.18C52,130.6,52.36,136.45,53.1,137.37ZM87.49,83.32C97.06,71,106.46,59.75,114,51.66c8.28-8.94,11.79-11.42,13.44-11.89a1.4,1.4,0,0,1,1.47.23c3,2.3-8.24,19.88-19.19,35.28l-1.14,1.6-1.67-.25-7.73-1.15L85.22,93.82l7.41,1.54,1.7.35L93.1,97.24c-7.64,9.51-15.48,18.49-22.1,25.29-12.75,13.09-14.53,11.7-15.2,11.18a1.3,1.3,0,0,1-.53-.7c-.36-1.26.49-4.74,8.12-16.42C69.26,107.58,77.82,95.78,87.49,83.32Z"/><path class="cls-3" d="M188.74,35c19.43,22-.55,71.41-44.64,110.28s-95.57,52.5-115,30.46L8.18,152s5.6-75.87,44.64-110.29c39.24-34.59,91.86-43.21,115-30.46Z"/><path class="cls-3" d="M77.32,183.38c3.62-1,7.37-2.23,11.16-3.65l-47.59-54-8.09,7.13Zm23.29-8.81c3.26-1.57,6.55-3.26,9.85-5.13L58.37,110.35l-8.09,7.13Zm20.64-11.81q4.45-2.94,8.89-6.23L75.84,95l-8.09,7.13ZM48.19,185.57a57.2,57.2,0,0,0,14.74.41L23.42,141.16l-8.09,7.14ZM185.24,94.43c1.88-3.58,3.61-7.14,5-10.62L145.74,33.32l-8.09,7.13ZM140,148.76c1.38-1.15,2.77-2.26,4.13-3.46s2.64-2.45,4-3.67L93.32,79.54l-8.09,7.13ZM155.12,25.05l39.52,44.82a57.08,57.08,0,0,0,1.44-14.68L163.22,17.92ZM172.27,115c2.27-3,4.36-6.09,6.33-9.13L128.27,48.73l-8.09,7.13ZM157,132.85c2.54-2.66,5-5.33,7.29-8l-53.5-60.69-8.09,7.14Z"/><path class="cls-3" d="M167.82,11.29c19.43,22-.55,71.42-44.63,110.28S27.62,174.08,8.18,152,8.73,80.62,52.82,41.75,148.39-10.75,167.82,11.29Z"/><path class="cls-3" d="M161.17,17.16c17.81,20.2-.51,65.46-40.91,101.09S32.65,166.38,14.83,146.17s.51-65.46,40.92-101.09S143.36-3,161.17,17.16Z"/><path class="cls-3" d="M152,25.22c15.59,17.68-.44,57.28-35.8,88.46S39.57,155.79,24,138.11s.44-57.28,35.8-88.46S136.44,7.54,152,25.22Z"/><path d="M46.1,130.37c.14.17.58.25,1.38,0a5.8,5.8,0,0,0,.81-.29,11.65,11.65,0,0,0,3-1.9c12.26-10.46,24.78-24,35.93-37.72.42-.5.83-1,1.23-1.52l1.91.39,9.17,1.9L77.64,122.77l14,3.58,58.27-80.94-14.65-2-21,28.37-9.56-1.42-2-.28c.38-.55.76-1.08,1.13-1.6C117,49.91,125.5,34.35,124.59,30.34c-.09-.34-.21-.37-.29-.39-5.47-1.43-26.9,22.1-39.12,37.27l-.34.41L57.52,62.11,42.75,80.32l29.07,5.77L71,87.18C45,123.6,45.36,129.45,46.1,130.37ZM80.49,76.32C90.06,64,99.46,52.75,107,44.66c8.28-8.94,11.79-11.42,13.44-11.89a1.4,1.4,0,0,1,1.47.23c3,2.3-8.24,19.88-19.19,35.28l-1.14,1.6-1.67-.25-7.73-1.15L78.22,86.82l7.41,1.54,1.7.35L86.1,90.24c-7.64,9.51-15.48,18.49-22.1,25.29-12.75,13.09-14.53,11.7-15.2,11.18a1.3,1.3,0,0,1-.53-.7c-.36-1.26.49-4.74,8.12-16.42C62.26,100.58,70.82,88.78,80.49,76.32Z"/></g></g></svg>