<svg xmlns="http://www.w3.org/2000/svg" viewBox="0 0 232.18 180.58"><defs><style>.cls-1,.cls-2{fill:#666;}.cls-1{stroke:#666;}.cls-1,.cls-3{stroke-miterlimit:10;stroke-width:1.71px;}.cls-3{fill:#fff;stroke:#000;}</style></defs><g id="图层_2" data-name="图层 2"><g id="图层_6" data-name="图层 6"><path class="cls-1" d="M11.8,128.39C-1.77,100.51,32.45,55.91,88.22,28.78s112-26.51,125.53,1.37l14.6,30s-27,75.58-76.42,99.6C102.29,183.92,46.35,177.89,26.4,158.4,24.21,153.92,13.29,131.45,11.8,128.39Z" transform="translate(0 0)"/><path class="cls-1" d="M166.86,8.84c-4,0-8.13.19-12.38.57l33.21,68.28,10.24-5Zm-26.17,2.4c-3.76.69-7.58,1.48-11.47,2.45l36.37,74.75,10.23-5Zm-24.32,6.21q-5.36,1.74-10.79,3.84l37.9,77.91,10.23-5Zm80.72-2.65a60.56,60.56,0,0,0-14.87-4.57L209.8,66.94,220,62ZM32.07,69c-2.92,3.12-5.68,6.25-8.09,9.39l31.07,63.87,10.24-5ZM93.4,26.42c-1.73.79-3.46,1.52-5.18,2.36s-3.37,1.75-5.06,2.62L121.37,110l10.24-5ZM43.18,148,15.6,91.29A59.75,59.75,0,0,0,10,105.81L32.94,153ZM51,51.73c-3.16,2.46-6.14,5-9,7.51l35.13,72.22,10.23-5ZM71.6,37.82q-5,3-9.68,6.11L99.26,120.7l10.24-5Z" transform="translate(0 0)"/><path class="cls-1" d="M26.4,158.4c-13.57-27.88,20.65-72.48,76.42-99.61s112-26.51,125.53,1.38-20.65,72.48-76.42,99.6S40,186.29,26.4,158.4Z" transform="translate(0 0)"/><path class="cls-1" d="M34.81,154.31C22.38,128.75,53.74,87.87,104.86,63s102.65-24.3,115.08,1.26S201,130.7,149.89,155.57,47.25,179.87,34.81,154.31Z" transform="translate(0 0)"/><path class="cls-1" d="M46.38,148.68C35.5,126.32,63,90.55,107.68,68.79s89.81-21.27,100.69,1.1-16.56,58.13-61.3,79.89S57.26,171.05,46.38,148.68Z" transform="translate(0 0)"/><path class="cls-2" d="M178.91,75.26c-24.07-21.24-67,6.33-67,6.33l-44,31.3,22.34,18.34-11.46,8.4,5,4.82,11.69-8.83,23,19.47,47.66-32.33S203,96.49,178.91,75.26Zm-27.48,42.95L129,133.83l-13.84-11.24,20.56-14.73-4.87-4.52-21.27,14.8L96.17,106.88l25-16.3s23.36-12.68,37.7-.66S151.43,118.21,151.43,118.21Z" transform="translate(0 0)"/><path class="cls-3" d="M3.82,120.41C-9.74,92.53,24.47,47.93,80.24,20.81s112-26.52,125.54,1.37l14.6,30s-27,75.59-76.42,99.61c-49.64,24.14-105.59,18.11-125.54-1.37Z" transform="translate(0 0)"/><path class="cls-3" d="M158.88.86c-4,0-8.13.2-12.38.57l33.21,68.28,10.24-5ZM132.71,3.27C129,4,125.14,4.74,121.25,5.72l36.36,74.75,10.23-5Zm-24.32,6.2Q103,11.21,97.6,13.31l37.9,77.91,10.24-5Zm80.73-2.64a60.35,60.35,0,0,0-14.88-4.57L201.82,59l10.24-5ZM24.09,61c-2.91,3.11-5.68,6.24-8.09,9.38l31.07,63.88,10.24-5ZM85.42,18.45c-1.73.78-3.45,1.52-5.18,2.36s-3.37,1.74-5,2.62L113.39,102l10.24-5ZM35.2,140,7.62,83.31A60.31,60.31,0,0,0,2,97.83L25,145Zm7.85-96.26c-3.16,2.46-6.14,5-9,7.51l35.13,72.22,10.24-5ZM63.63,29.84c-3.34,2-6.57,4-9.69,6.12l37.35,76.77,10.23-5Z" transform="translate(0 0)"/><path class="cls-3" d="M18.42,150.43C4.86,122.54,39.07,78,94.84,50.82s112-26.52,125.54,1.37S199.73,124.67,144,151.8,32,178.31,18.42,150.43Z" transform="translate(0 0)"/><path class="cls-3" d="M26.84,146.33C14.4,120.77,45.76,79.89,96.89,55S199.53,30.72,212,56.28,193,122.72,141.91,147.59,39.27,171.89,26.84,146.33Z" transform="translate(0 0)"/><path class="cls-3" d="M38.41,140.71C27.53,118.34,55,82.57,99.7,60.81s89.81-21.27,100.69,1.1-16.56,58.14-61.29,79.9S49.29,163.07,38.41,140.71Z" transform="translate(0 0)"/><path d="M170.94,67.28c-24.08-21.24-67,6.33-67,6.33l-44,31.3,22.35,18.34-11.46,8.4,5,4.82,11.69-8.82,23,19.46,47.66-32.32S195,88.52,170.94,67.28Zm-27.49,43L121,125.86l-13.85-11.25,20.57-14.73-4.87-4.52-21.28,14.8L88.19,98.91l25-16.3s23.35-12.69,37.69-.67S143.45,110.23,143.45,110.23Z" transform="translate(0 0)"/></g></g></svg>