<svg xmlns="http://www.w3.org/2000/svg" viewBox="0 0 235.16 198.07"><defs><style>.cls-1{isolation:isolate;}.cls-2{mix-blend-mode:multiply;}.cls-3{fill:#666;}.cls-4{fill:#fff;}</style></defs><g class="cls-1"><g id="图层_2" data-name="图层 2"><g id="图层_6" data-name="图层 6"><g class="cls-2"><path class="cls-3" d="M232.67,159.35c9.49-12.68-27-56.06-81.58-96.89s-106.47-63.65-116-51L9.5,45.73s33.28,60.74,81.58,96.9c48.56,36.34,99.64,55.49,116,51C208.57,191.55,231.62,160.74,232.67,159.35Z" transform="translate(0 0)"/><path class="cls-3" d="M10,48.65c-.87-1.5-1.34-2.35-1.38-2.42l-.31-.58.39-.54L34.3,10.88C39.21,4.32,54.24,6.12,76.63,16c22,9.66,48.64,25.88,75.08,45.67,55.85,41.8,91.78,85,81.79,98.34h0c-1.05,1.39-24.1,32.2-25.63,34.24l-.21.28-.34.1c-17.1,4.75-68.13-14.66-116.86-51.13C48,111.67,16.76,60.35,10,48.65Zm.77-2.83c3.55,6.3,35.9,62.25,81,96,47.2,35.33,98.09,55,114.73,50.88l25.41-34c9-12-28.28-55.71-81.37-95.44C124.15,43.59,97.63,27.45,75.8,17.86,54.69,8.58,40.17,6.49,36,12.12,35,13.46,13.92,41.56,10.74,45.82Z" transform="translate(0 0)"/><path class="cls-3" d="M39,66.53,49,74,87.68,22.38c-4-2-7.85-3.88-11.51-5.49ZM60.64,82.71l10,7.5,40.86-54.59c-3.7-2.24-7.32-4.34-10.87-6.34ZM82.27,98.9l10,7.49,41.93-56q-5.25-3.61-10.4-7ZM17.39,50.35l10,7.49L62.12,11.46A71.69,71.69,0,0,0,48.86,8.31ZM168.76,163.64l10,7.49,37.15-49.64c-2.57-3-5.46-6.25-8.51-9.5Zm-64.87-48.56,10,7.5,42.15-56.32c-1.65-1.26-3.27-2.54-5-3.8S147.72,60,146,58.77Zm96.5,72.24,31.47-42a72,72,0,0,0-6.77-11.83l-34.71,46.37Zm-53.25-39.87,10,7.5,40-53.44c-2.92-2.85-5.95-5.72-9.15-8.64Zm-21.63-16.18,10,7.49,41.55-55.5q-4.66-4-9.62-8Z" transform="translate(0 0)"/><path class="cls-3" d="M16,50.56,48.39,7.21l.59.08a72.06,72.06,0,0,1,13.46,3.19l1.37.45L27.61,59.29ZM49.32,9.42,18.84,50.14l8.36,6.25L60.42,12A69.45,69.45,0,0,0,49.32,9.42ZM37.57,66.74,75.84,15.61l.75.33c3.28,1.45,7.06,3.25,11.56,5.52l1.1.55-40,53.46ZM76.51,18.17l-36,48.15,8.35,6.25L86.11,22.75C82.46,20.92,79.3,19.42,76.51,18.17ZM59.19,82.92l41.16-55,.8.45c3.85,2.17,7.42,4.25,10.9,6.36l1,.59L70.86,91.66Zm41.73-52.29L62.09,82.51l8.35,6.25L110,35.92C107.08,34.17,104.1,32.42,100.92,30.63ZM80.82,99.11,123.56,42l.82.53c3.37,2.2,6.88,4.55,10.42,7l.88.61-43.2,57.71Zm43.24-54.32L83.72,98.69l8.35,6.25,40.66-54.33C129.79,48.59,126.88,46.64,124.06,44.79Zm-21.62,70.5,43.38-58,2.45,1.78c1.14.83,2.29,1.66,3.44,2.52s2.19,1.67,3.27,2.5l2.51,1.93-43.38,58Zm43.82-55.08-40.92,54.67,8.35,6.25,40.92-54.67-.89-.69c-1.07-.83-2.15-1.66-3.25-2.48s-2.28-1.68-3.42-2.51Zm-22.2,71.27,43.2-57.72.84.68c3.35,2.72,6.59,5.42,9.64,8l.74.63-42.75,57.11Zm43.57-54.75L127,131.06l8.36,6.25,40.34-53.9C173.09,81.23,170.4,79,167.63,76.73Zm-21.94,70.93,42.16-56.33.84.77c3,2.74,6,5.57,9.18,8.67l.65.63-41.16,55ZM188.14,94.4l-39.56,52.85,8.36,6.25,38.83-51.88C193.14,99.07,190.63,96.7,188.14,94.4Zm-20.83,69.45,40-53.47.84.91c3.43,3.66,6.23,6.78,8.54,9.54l.53.62L179,172.58ZM207.5,113.6l-37.29,49.83,8.35,6.25,36-48.15C212.61,119.2,210.28,116.59,207.5,113.6ZM188.93,180l36.2-48.36.82,1.19a73.08,73.08,0,0,1,6.86,12l.23.55L200.6,188.77Zm36.12-44.8-33.22,44.39,8.36,6.25,30.47-40.73A69.49,69.49,0,0,0,225.05,135.23Z" transform="translate(0 0)"/><path class="cls-3" d="M207,193.59c-9.49,12.68-61.41-10.13-116-51S0,58.42,9.5,45.73s61.42,10.14,116,51S216.54,180.9,207,193.59Z" transform="translate(0 0)"/><path class="cls-3" d="M12.52,66.4c-5.64-9.72-7-17-3.85-21.29,10-13.34,61.57,9,117.42,50.75s91.77,85,81.78,98.35h0c-10,13.34-61.56-9-117.41-50.75-26.44-19.79-49.52-40.8-65-59.17A129.2,129.2,0,0,1,12.52,66.4Zm190,108c-11.31-19.48-40.64-49.13-77.68-76.85C71.76,57.79,19.32,34.35,10.33,46.35,6.12,52,12.22,65.32,27.07,83,42.43,101.2,65.38,122.1,91.7,141.8,144.79,181.53,197.23,205,206.21,193h0C208.93,189.34,207.42,182.8,202.52,174.37Z" transform="translate(0 0)"/><path class="cls-3" d="M198.81,187.43c-8.7,11.62-56.29-9.29-106.3-46.72S9,63.52,17.73,51.9,74,61.18,124,98.61,207.52,175.8,198.81,187.43Z" transform="translate(0 0)"/><path class="cls-3" d="M20.24,70.66C15.79,63,13.56,55.74,16.9,51.28,26.09,39,73.42,59.43,124.65,97.78c24.25,18.14,45.41,37.41,59.58,54.24,10.23,12.16,21.22,28.27,15.41,36h0c-9.18,12.27-56.51-8.16-107.75-46.51C67.65,123.4,46.49,104.13,32.32,87.3A123,123,0,0,1,20.24,70.66Zm174.22,99a119.24,119.24,0,0,0-11.81-16.29c-14.08-16.72-35.12-35.87-59.24-53.93C69.75,59.27,25.87,42.75,18.56,52.52,14.73,57.64,20.32,69.83,33.9,86,48,102.68,69,121.83,93.14,139.88c53.65,40.17,97.53,56.69,104.84,46.93h0C200.38,183.6,199.09,177.63,194.46,169.65Z" transform="translate(0 0)"/><path class="cls-3" d="M187.5,179c-7.62,10.17-49.26-8.13-93-40.88s-73-67.54-65.44-77.71,49.26,8.12,93,40.87S195.11,168.78,187.5,179Z" transform="translate(0 0)"/><path class="cls-3" d="M31.15,76.86c-3.92-6.75-5.89-13.15-2.93-17.11,9-12,55.11,11.21,94.46,40.66s74.66,67.12,65.65,79.17h0c-9,12-55.12-11.22-94.47-40.67C72.64,123,54.12,106.16,41.71,91.43A107.54,107.54,0,0,1,31.15,76.86Zm152.36,86.58c-8.59-14.79-30.2-37.52-62.07-61.37C74.55,67,36.24,52.49,29.88,61c-3.32,4.43,1.58,15,13.42,29.1C55.61,104.71,74,121.46,95.11,137.26c46.89,35.09,85.2,49.57,91.56,41.08C188.7,175.61,187.55,170.41,183.51,163.44Z" transform="translate(0 0)"/><path class="cls-3" d="M171.47,152.37a1.64,1.64,0,0,0-.57-2l-35.31-25.26,2.36-3.83-12.31-8.67-2.73,3.56-15.15-10.6,2.71-4.39L97.66,92.92l-2.45,4.24L58.85,71.53a1.68,1.68,0,0,0-2.37.45c-14.72,22,27,47.65,27,47.65l-1.78,2.8,12,7.49,1.06-1.42,12.8,8.3-.94,2.42,11.64,7.7,1.37-2.09C159.61,171.4,169.48,157,171.47,152.37ZM67.6,82.4l25.45,18.13-7.56,15.31S57.54,100.7,67.6,82.4Zm29,42.65,8.79-15.39L120.55,120l-10.5,13.5Zm25.53,16.79,10.54-13.26L158.52,146S150.4,163.39,122.12,141.84Z" transform="translate(0 0)"/></g><path class="cls-4" d="M225.67,152.35c9.49-12.68-27-56.06-81.58-96.89S37.62-8.19,28.13,4.5L2.5,38.73s33.28,60.74,81.58,96.9c48.56,36.34,99.64,55.49,116,51C201.57,184.55,224.62,153.74,225.67,152.35Z" transform="translate(0 0)"/><path d="M3,41.65c-.87-1.5-1.34-2.35-1.38-2.42l-.31-.58.39-.54L27.3,3.88C32.21-2.68,47.24-.88,69.63,9c22,9.66,48.64,25.88,75.08,45.67,55.85,41.8,91.78,85,81.79,98.34h0c-1.05,1.39-24.1,32.2-25.63,34.24l-.21.28-.34.1c-17.1,4.75-68.13-14.66-116.86-51.13C41,104.67,9.76,53.35,3,41.65Zm.77-2.83c3.55,6.3,35.9,62.25,81,96,47.2,35.33,98.09,55,114.73,50.88l25.41-34c9-12-28.28-55.71-81.37-95.44C117.15,36.59,90.63,20.45,68.8,10.86,47.69,1.58,33.17-.51,29,5.12,28,6.46,6.92,34.56,3.74,38.82Z" transform="translate(0 0)"/><path class="cls-4" d="M32,59.53,42,67,80.68,15.38c-4-2-7.85-3.88-11.51-5.49ZM53.64,75.71l10,7.5,40.86-54.59c-3.7-2.24-7.32-4.34-10.87-6.34ZM75.27,91.9l10,7.49,41.93-56q-5.25-3.61-10.4-7ZM10.39,43.35l10,7.49L55.12,4.46A71.69,71.69,0,0,0,41.86,1.31ZM161.76,156.64l10,7.49,37.15-49.64c-2.57-3-5.46-6.25-8.51-9.5ZM96.89,108.08l10,7.5,42.15-56.32c-1.65-1.26-3.27-2.54-5-3.8S140.72,53,139,51.77Zm96.5,72.24,31.47-42a72,72,0,0,0-6.77-11.83l-34.71,46.37Zm-53.25-39.87,10,7.5,40-53.44c-2.92-2.85-5.95-5.72-9.15-8.64Zm-21.63-16.18,10,7.49,41.55-55.5q-4.66-4-9.62-8Z" transform="translate(0 0)"/><path d="M9,43.56,41.39.21,42,.29A72.06,72.06,0,0,1,55.44,3.48l1.37.45L20.61,52.29ZM42.32,2.42,11.84,43.14l8.36,6.25L53.42,5A69.45,69.45,0,0,0,42.32,2.42ZM30.57,59.74,68.84,8.61l.75.33c3.28,1.45,7.06,3.25,11.56,5.52l1.1.55-40,53.46ZM69.51,11.17l-36,48.15,8.35,6.25L79.11,15.75C75.46,13.92,72.3,12.42,69.51,11.17ZM52.19,75.92l41.16-55,.8.45c3.85,2.17,7.42,4.25,10.9,6.36l1,.59L63.86,84.66ZM93.92,23.63,55.09,75.51l8.35,6.25L103,28.92C100.08,27.17,97.1,25.42,93.92,23.63ZM73.82,92.11,116.56,35l.82.53c3.37,2.2,6.88,4.55,10.42,7l.88.61-43.2,57.71Zm43.24-54.32L76.72,91.69l8.35,6.25,40.66-54.33C122.79,41.59,119.88,39.64,117.06,37.79Zm-21.62,70.5,43.38-58,2.45,1.78c1.14.83,2.29,1.66,3.44,2.52s2.19,1.67,3.27,2.5l2.51,1.93-43.38,58Zm43.82-55.08L98.34,107.88l8.35,6.25,40.92-54.67-.89-.69c-1.07-.83-2.15-1.66-3.25-2.48s-2.28-1.68-3.42-2.51Zm-22.2,71.27,43.2-57.72.84.68c3.35,2.72,6.59,5.42,9.64,8l.74.63-42.75,57.11Zm43.57-54.75L120,124.06l8.36,6.25,40.34-53.9C166.09,74.23,163.4,72,160.63,69.73Zm-21.94,70.93,42.16-56.33.84.77c3,2.74,6,5.57,9.18,8.67l.65.63-41.16,55ZM181.14,87.4l-39.56,52.85,8.36,6.25,38.83-51.88C186.14,92.07,183.63,89.7,181.14,87.4Zm-20.83,69.45,40-53.47.84.91c3.43,3.66,6.23,6.78,8.54,9.54l.53.62L172,165.58ZM200.5,106.6l-37.29,49.83,8.35,6.25,36-48.15C205.61,112.2,203.28,109.59,200.5,106.6ZM181.93,173l36.2-48.36.82,1.19a73.08,73.08,0,0,1,6.86,12l.23.55L193.6,181.77Zm36.12-44.8-33.22,44.39,8.36,6.25,30.47-40.73A69.49,69.49,0,0,0,218.05,128.23Z" transform="translate(0 0)"/><path class="cls-4" d="M200,186.59c-9.49,12.68-61.41-10.13-116-51S-7,51.42,2.5,38.73s61.42,10.14,116,51S209.54,173.9,200,186.59Z" transform="translate(0 0)"/><path d="M5.52,59.4c-5.64-9.72-7-17-3.85-21.29,10-13.34,61.57,9,117.42,50.75s91.77,85,81.78,98.35h0c-10,13.34-61.56-9-117.41-50.75-26.44-19.79-49.52-40.8-65-59.17A129.2,129.2,0,0,1,5.52,59.4Zm190,108c-11.31-19.48-40.64-49.13-77.68-76.85C64.76,50.79,12.32,27.35,3.33,39.35-.88,45,5.22,58.32,20.07,76,35.43,94.2,58.38,115.1,84.7,134.8,137.79,174.53,190.23,198,199.21,186h0C201.93,182.34,200.42,175.8,195.52,167.37Z" transform="translate(0 0)"/><path class="cls-4" d="M191.81,180.43c-8.7,11.62-56.29-9.29-106.3-46.72S2,56.52,10.73,44.9,67,54.18,117,91.61,200.52,168.8,191.81,180.43Z" transform="translate(0 0)"/><path d="M13.24,63.66C8.79,56,6.56,48.74,9.9,44.28,19.09,32,66.42,52.43,117.65,90.78c24.25,18.14,45.41,37.41,59.58,54.24,10.23,12.16,21.22,28.27,15.41,36h0c-9.18,12.27-56.51-8.16-107.75-46.51C60.65,116.4,39.49,97.13,25.32,80.3A123,123,0,0,1,13.24,63.66Zm174.22,99a119.24,119.24,0,0,0-11.81-16.29c-14.08-16.72-35.12-35.87-59.24-53.93C62.75,52.27,18.87,35.75,11.56,45.52,7.73,50.64,13.32,62.83,26.9,79,41,95.68,62,114.83,86.14,132.88c53.65,40.17,97.53,56.69,104.84,46.93h0C193.38,176.6,192.09,170.63,187.46,162.65Z" transform="translate(0 0)"/><path class="cls-4" d="M180.5,172c-7.62,10.17-49.26-8.13-93-40.88s-73-67.54-65.44-77.71,49.26,8.12,93,40.87S188.11,161.78,180.5,172Z" transform="translate(0 0)"/><path d="M24.15,69.86c-3.92-6.75-5.89-13.15-2.93-17.11,9-12,55.11,11.21,94.46,40.66s74.66,67.12,65.65,79.17h0c-9,12-55.12-11.22-94.47-40.67C65.64,116,47.12,99.16,34.71,84.43A107.54,107.54,0,0,1,24.15,69.86Zm152.36,86.58c-8.59-14.79-30.2-37.52-62.07-61.37C67.55,60,29.24,45.49,22.88,54c-3.32,4.43,1.58,15,13.42,29.1C48.61,97.71,67,114.46,88.11,130.26c46.89,35.09,85.2,49.57,91.56,41.08C181.7,168.61,180.55,163.41,176.51,156.44Z" transform="translate(0 0)"/><path d="M164.47,145.37a1.64,1.64,0,0,0-.57-2l-35.31-25.26,2.36-3.83-12.31-8.67-2.73,3.56-15.15-10.6,2.71-4.39L90.66,85.92l-2.45,4.24L51.85,64.53a1.68,1.68,0,0,0-2.37.45c-14.72,22,27,47.65,27,47.65l-1.78,2.8,12,7.49,1.06-1.42,12.8,8.3-.94,2.42,11.64,7.7,1.37-2.09C152.61,164.4,162.48,150,164.47,145.37ZM60.6,75.4,86.05,93.53l-7.56,15.31S50.54,93.7,60.6,75.4Zm29,42.65,8.79-15.39L113.55,113l-10.5,13.5Zm25.53,16.79,10.54-13.26L151.52,139S143.4,156.39,115.12,134.84Z" transform="translate(0 0)"/></g></g></g></svg>