<svg xmlns="http://www.w3.org/2000/svg" viewBox="0 0 209.78 212.62"><defs><style>.cls-1{isolation:isolate;}.cls-2{mix-blend-mode:multiply;}.cls-3,.cls-5,.cls-6,.cls-7{fill:#666;}.cls-3,.cls-4,.cls-5,.cls-6,.cls-7{stroke:#666;}.cls-3,.cls-8{stroke-miterlimit:10;stroke-width:1.5px;}.cls-4,.cls-9{fill:none;}.cls-10,.cls-11,.cls-12,.cls-4,.cls-5,.cls-6,.cls-7,.cls-9{stroke-linecap:round;stroke-linejoin:round;}.cls-10,.cls-4,.cls-5,.cls-9{stroke-width:1.7px;}.cls-11,.cls-6{stroke-width:1.1px;}.cls-12,.cls-7{stroke-width:0.73px;}.cls-8{fill:#fff;}.cls-10,.cls-11,.cls-12,.cls-8,.cls-9{stroke:#000;}</style></defs><g class="cls-1"><g id="图层_2" data-name="图层 2"><g id="图层_6" data-name="图层 6"><g class="cls-2"><path class="cls-3" d="M159.25,196.23c45.46-21.8,63-79.81,39.11-129.57S118.3-5.76,72.84,16L57.52,23.39S-2.71,108.9,18.42,153c21.24,44.3,83.42,61.52,125.52,50.62Z"/><path class="cls-3" d="M73.14,48.32l4.38,9.13,77.7-37.26a99.15,99.15,0,0,0-11.57-5.69ZM82.6,68,87,77.17l88.25-42.32a102.11,102.11,0,0,0-8.5-7.15Zm9.46,19.73,4.37,9.13,93.4-44.79c-2-2.88-4-5.63-6.24-8.25ZM63.68,28.59l4.38,9.14L126.88,9.52a87.92,87.92,0,0,0-19.94-1.67Zm66.21,138.07,4.38,9.13L204.78,142a97.91,97.91,0,0,0,2.81-12.58Zm-28.38-59.17,4.38,9.13,94.45-45.29c-.67-1.56-1.25-3.13-2-4.67s-1.6-3-2.4-4.46Zm42.22,88L187,174.77a88.21,88.21,0,0,0,11.18-16.59l-58.82,28.2Zm-23.3-48.58,4.38,9.13,84.12-40.35a103.3,103.3,0,0,0-.25-11.11ZM111,127.21l4.38,9.13,91.54-43.9q-1-5-2.52-10Z"/><path class="cls-3" d="M143.94,203.57c45.46-21.8,63-79.81,39.1-129.57S103,1.59,57.52,23.39-5.44,103.2,18.42,153,98.48,225.38,143.94,203.57Z"/><path class="cls-3" d="M140.34,196.07c41.67-20,57.72-73.16,35.84-118.78S102.8,10.91,61.12,30.89,3.41,104.06,25.28,149.67,98.67,216.05,140.34,196.07Z"/><path class="cls-3" d="M135.39,185.74c36.46-17.48,50.5-64,31.36-103.92S102.54,23.73,66.08,41.22s-50.51,64-31.37,103.92S98.92,203.23,135.39,185.74Z"/><path class="cls-4" d="M87,145.59s13-8.91,5.75-26.19S66,104.6,66,104.6c4.37-19.26-5.72-29.7-5.75-29.73-16.85,9.9-17,30.63-14.5,45.29a62.58,62.58,0,0,0,13.21,29c18.13,22.32,35,23,47.59,17.76C104.75,156.11,87,145.59,87,145.59Zm-17.46-9.16-1.61-2.77-2.45-.6.73-3-1.57-2.8,1.12-.42L70.46,136Zm-.46,5.62,5-2.39-8.79-16.89-4.65,2.35L65.25,118l5.32,11.18L75,127.31s-2.85-8.79,5.82-9.46l6.92,13s-5,6.38-11.37-.9L72,131.65l5.25,11Z"/><path class="cls-5" d="M60.21,74.87S70.33,85.34,66,104.6c0,0,19.52-2.48,26.8,14.8S87,145.59,87,145.59s17.74,10.52,19.5,21.36c13.66-5.72,22.36-18.48,22.36-18.48s41-3,39.88-15.41-30.28-17.52-30.28-17.52c-.6-17.4-18.42-34.88-18.42-34.88a124.1,124.1,0,0,0,4.86-12.82h0c2.91-9.27,5-20.61-.92-23.31s-17.06,5.58-25.62,13.25h0c-6.55,5.88-11.59,11.4-11.59,11.4C75.1,69,66.49,71.17,60.21,74.87Zm99.57,58.46c-2.18,6.38-26.42,9.41-26.42,9.41,4.87-7.64,6.12-21.48,6.12-21.48S162,127,159.78,133.33Zm-42.73-10c4-.57,5.77,4.11,6.61,6.83s.77,3.6-.44,5.28a3.19,3.19,0,0,1-3.69,1,4.78,4.78,0,0,1-2.36-2.37l-2.62-5.48a4.44,4.44,0,0,1-.44-2.4A3.09,3.09,0,0,1,117.05,123.31Zm-16.89,6.57c2.11,1.09,11.67,6.05,14.6,10.26a2.77,2.77,0,0,1-.58,3.76c-1,.81-2.52,1.54-3.93.79-2.49-1.34-6.9-5-11.26-12.2a2.75,2.75,0,0,1-.55-1.92A1.15,1.15,0,0,1,100.16,129.88Zm-13-21.43a3.26,3.26,0,0,1-1.5-1.84c-4-9.08-4.57-15.84-4.15-19.14.23-1.87,2-2.79,3.5-3.24a3.36,3.36,0,0,1,4.09,2c2.1,5.7.32,18.26-.07,21A1.38,1.38,0,0,1,87.19,108.45ZM102,96a2.91,2.91,0,0,1-4,.09,4.23,4.23,0,0,1-1.34-1.95l-2-5.59a4.74,4.74,0,0,1,0-3.28,3.1,3.1,0,0,1,3.2-1.9c2,.3,2.61.85,3.9,3.3S105.08,93.53,102,96Zm17.14-43.33c4.53,4.71-2.58,24.85-2.58,24.85-12-9.14-22.12-7.81-22.12-7.81S114.59,47.93,119.12,52.65Z"/><path class="cls-6" d="M76.38,130c6.4,7.28,11.37.9,11.37.9l-6.92-13c-8.67.67-5.82,9.46-5.82,9.46l-4.44,1.86L65.25,118l-4.63,7.13,4.65-2.35,8.79,16.89-5,2.39,8.18.64-5.25-11Z"/><polygon class="cls-7" points="64.65 127.3 66.22 130.1 65.49 133.06 67.94 133.66 69.55 136.43 70.46 136 65.77 126.88 64.65 127.3"/></g><path class="cls-8" d="M152.25,189.23c45.46-21.8,63-79.81,39.11-129.57S111.3-12.76,65.84,9L50.52,16.39S-9.71,101.9,11.42,146c21.24,44.3,83.42,61.52,125.52,50.62Z"/><path class="cls-8" d="M66.14,41.32l4.38,9.13,77.7-37.26A99.15,99.15,0,0,0,136.65,7.5ZM75.6,61,80,70.17l88.25-42.32a102.11,102.11,0,0,0-8.5-7.15Zm9.46,19.73,4.37,9.13,93.4-44.79c-2-2.88-4-5.63-6.24-8.25ZM56.68,21.59l4.38,9.14L119.88,2.52A87.92,87.92,0,0,0,99.94.85Zm66.21,138.07,4.38,9.13L197.78,135a97.91,97.91,0,0,0,2.81-12.58ZM94.51,100.49l4.38,9.13,94.45-45.29c-.67-1.56-1.25-3.13-2-4.67s-1.6-3-2.4-4.46Zm42.22,88L180,167.77a88.21,88.21,0,0,0,11.18-16.59l-58.82,28.2Zm-23.3-48.58,4.38,9.13,84.12-40.35a103.3,103.3,0,0,0-.25-11.11ZM104,120.21l4.38,9.13,91.54-43.9q-1-5-2.52-10Z"/><path class="cls-8" d="M136.94,196.57c45.46-21.8,63-79.81,39.1-129.57S96-5.41,50.52,16.39-12.44,96.2,11.42,146,91.48,218.38,136.94,196.57Z"/><path class="cls-8" d="M133.34,189.07c41.67-20,57.72-73.16,35.84-118.78S95.8,3.91,54.12,23.89-3.59,97.06,18.28,142.67,91.67,209.05,133.34,189.07Z"/><path class="cls-8" d="M128.39,178.74c36.46-17.48,50.5-64,31.36-103.92S95.54,16.73,59.08,34.22s-50.51,64-31.37,103.92S91.92,196.23,128.39,178.74Z"/><path class="cls-9" d="M80,138.59s13-8.91,5.75-26.19S59,97.6,59,97.6c4.37-19.26-5.72-29.7-5.75-29.73-16.85,9.9-17,30.63-14.5,45.29a62.58,62.58,0,0,0,13.21,29c18.13,22.32,35,23,47.59,17.76C97.75,149.11,80,138.59,80,138.59Zm-17.46-9.16-1.61-2.77-2.45-.6.73-3-1.57-2.8,1.12-.42L63.46,129Zm-.46,5.62,5-2.39-8.79-16.89-4.65,2.35L58.25,111l5.32,11.18L68,120.31s-2.85-8.79,5.82-9.46l6.92,13s-5,6.38-11.37-.9L65,124.65l5.25,11Z"/><path class="cls-10" d="M53.21,67.87S63.33,78.34,59,97.6c0,0,19.52-2.48,26.8,14.8S80,138.59,80,138.59,97.75,149.11,99.51,160c13.66-5.72,22.36-18.48,22.36-18.48s41-3,39.88-15.41-30.28-17.52-30.28-17.52c-.6-17.4-18.42-34.88-18.42-34.88a124.1,124.1,0,0,0,4.86-12.82h0c2.91-9.27,5-20.61-.92-23.31S99.93,43.11,91.37,50.78h0c-6.55,5.88-11.59,11.4-11.59,11.4C68.1,62,59.49,64.17,53.21,67.87Zm99.57,58.46c-2.18,6.38-26.42,9.41-26.42,9.41,4.87-7.64,6.12-21.48,6.12-21.48S155,120,152.78,126.33Zm-42.73-10c4-.57,5.77,4.11,6.61,6.83s.77,3.6-.44,5.28a3.19,3.19,0,0,1-3.69,1,4.78,4.78,0,0,1-2.36-2.37l-2.62-5.48a4.44,4.44,0,0,1-.44-2.4A3.09,3.09,0,0,1,110.05,116.31Zm-16.89,6.57c2.11,1.09,11.67,6.05,14.6,10.26a2.77,2.77,0,0,1-.58,3.76c-1,.81-2.52,1.54-3.93.79-2.49-1.34-6.9-5-11.26-12.2a2.75,2.75,0,0,1-.55-1.92A1.15,1.15,0,0,1,93.16,122.88Zm-13-21.43a3.26,3.26,0,0,1-1.5-1.84c-4-9.08-4.57-15.84-4.15-19.14.23-1.87,2-2.79,3.5-3.24a3.36,3.36,0,0,1,4.09,2c2.1,5.7.32,18.26-.07,21A1.38,1.38,0,0,1,80.19,101.45ZM95,89a2.91,2.91,0,0,1-4,.09,4.23,4.23,0,0,1-1.34-1.95l-2-5.59a4.74,4.74,0,0,1,0-3.28,3.1,3.1,0,0,1,3.2-1.9c2,.3,2.61.85,3.9,3.3S98.08,86.53,95,89Zm17.14-43.33c4.53,4.71-2.58,24.85-2.58,24.85-12-9.14-22.12-7.81-22.12-7.81S107.59,40.93,112.12,45.65Z"/><path class="cls-11" d="M69.38,123c6.4,7.28,11.37.9,11.37.9l-6.92-13c-8.67.67-5.82,9.46-5.82,9.46l-4.44,1.86L58.25,111l-4.63,7.13,4.65-2.35,8.79,16.89-5,2.39,8.18.64-5.25-11Z"/><polygon class="cls-12" points="57.65 120.3 59.23 123.1 58.49 126.06 60.94 126.66 62.55 129.43 63.46 129 58.77 119.88 57.65 120.3"/></g></g></g></svg>