<svg xmlns="http://www.w3.org/2000/svg" viewBox="0 0 189.1 214.45"><defs><style>.cls-1{isolation:isolate;}.cls-2{mix-blend-mode:multiply;}.cls-3{fill:#666;}.cls-4{fill:#fff;}</style></defs><g class="cls-1"><g id="图层_2" data-name="图层 2"><g id="图层_6" data-name="图层 6"><g class="cls-2"><path class="cls-3" d="M154.5,9.49C143.09.26,101.69,32.54,62,81.57S-.56,177.83,10.85,187.05L41.62,212S99,183.29,134.09,139.87C169.4,96.22,188.9,49.64,185.27,34.39Z"/><path class="cls-3" d="M44.33,211.62l-2.28,1.19-.55.27L41,212.7,10.24,187.8c-5.89-4.77-3.7-18.61,6.18-39,9.7-20,25.63-44.08,44.86-67.85C101.89,30.77,143.1-1,155.1,8.74h0l30.77,24.9.26.21.07.32c3.8,16-15.93,62.51-51.36,106.3C104,178.65,55.39,205.74,44.33,211.62Zm-2.59-.81c5.95-3.06,58.83-31,91.61-71.54,34.32-42.43,54.33-88.81,51.06-104.35L153.89,10.23C143.1,1.51,101.38,34.45,62.77,82.17c-19.14,23.66-35,47.63-44.62,67.49-9.32,19.2-11.76,32.56-6.7,36.65Z"/><path class="cls-3" d="M61.89,185.38l7.28-9L22.74,138.82c-2,3.61-3.86,7.13-5.47,10.46Zm15.72-19.44,7.28-9-49.07-39.7c-2.2,3.35-4.27,6.62-6.24,9.84ZM93.34,146.5l7.28-9L50.26,96.76q-3.54,4.74-6.82,9.38ZM46.16,204.81l7.28-9L11.76,162.09a65.87,65.87,0,0,0-3.38,12.16ZM156.23,68.75l7.28-9-44.62-36.1c-2.91,2.27-6,4.84-9.08,7.54Zm-47.17,58.31,7.28-9-50.62-41c-1.23,1.49-2.46,2.94-3.69,4.46s-2.4,3-3.59,4.54Zm70.18-86.74L141.45,9.75a66.79,66.79,0,0,0-11.18,5.84L172,49.32ZM140.51,88.19l7.28-9-48-38.86c-2.74,2.61-5.51,5.31-8.32,8.17Zm-15.72,19.44,7.27-9L82.17,58.27q-3.86,4.17-7.74,8.62Z"/><path class="cls-3" d="M46.3,206.16l-39-31.52.09-.55a67.1,67.1,0,0,1,3.43-12.33l.46-1.26,43.47,35.17ZM9.42,173.85,46,203.47,52.09,196,12.2,163.68A64.09,64.09,0,0,0,9.42,173.85ZM62,186.72l-46-37.18.33-.68c1.45-3,3.25-6.42,5.5-10.5l.56-1,48.05,38.88ZM18.46,149l43.28,35,6.08-7.51L23,140.29C21.22,143.6,19.71,146.47,18.46,149Zm59.29,18.28-49.43-40,.44-.71c2.14-3.49,4.19-6.72,6.26-9.86l.59-.89,50.63,41ZM30.83,126.86l46.64,37.73,6.07-7.51L36,118.66C34.32,121.29,32.61,124,30.83,126.86Zm62.65,21L42.14,106.32l.52-.74c2.15-3,4.45-6.2,6.83-9.39l.59-.8,51.88,42ZM44.74,106l48.45,39.19,6.08-7.5L50.43,98.13C48.46,100.78,46.55,103.41,44.74,106Zm64.46,22.45L57.1,86.26l1.73-2.2c.81-1,1.61-2.06,2.45-3.09S62.9,79,63.71,78l1.87-2.26,52.11,42.15ZM59.78,86l49.14,39.76,6.07-7.51L65.85,78.45l-.67.8c-.8,1-1.61,1.93-2.41,2.92s-1.63,2-2.43,3.08Zm65.15,23L73.05,67l.65-.75c2.64-3,5.25-5.92,7.77-8.65l.61-.66,51.33,41.54ZM75.8,66.77l48.84,39.51,6.07-7.51L82.27,59.58C80.16,61.87,78,64.28,75.8,66.77Zm64.85,22.77L90,48.58l.74-.76c2.63-2.67,5.36-5.35,8.33-8.18l.61-.58,49.44,40ZM92.87,48.42l47.5,38.42,6.07-7.51L99.81,41.61C97.36,44,95.08,46.19,92.87,48.42Zm63.5,21.68L108.32,31.22l.86-.75c3.51-3,6.5-5.52,9.13-7.57l.6-.47,46,37.18ZM111.3,31.17l44.79,36.24,6.07-7.51-43.28-35C116.65,26.64,114.16,28.71,111.3,31.17Zm60.8,19.5L128.63,15.5l1.13-.72a67.19,67.19,0,0,1,11.35-5.92l.51-.2,39,31.52Zm-40.18-35L171.82,48l6.07-7.51L141.28,10.85A64.89,64.89,0,0,0,131.92,15.69Z"/><path class="cls-3" d="M185.27,34.39c11.4,9.22-11.51,56.45-51.18,105.48S53,221.18,41.62,212,53.13,155.5,92.8,106.47,173.87,25.16,185.27,34.39Z"/><path class="cls-3" d="M60.84,209.89c-9.18,4.87-16,5.89-19.82,2.81-12-9.71,10.42-56.63,51-106.84s81.82-81.92,93.81-72.22h0c12,9.71-10.42,56.63-51,106.83-19.23,23.77-39.47,44.39-57,58A120.42,120.42,0,0,1,60.84,209.89Zm106.49-172c-18.4,9.78-46.85,35.88-73.78,69.17-38.61,47.72-62.11,95.41-51.33,104.14,5.06,4.09,17.61-1.09,34.45-14.21,17.41-13.57,37.54-34.07,56.68-57.73,38.6-47.72,62.1-95.41,51.32-104.14h0C181.41,32.49,175.31,33.67,167.33,37.9Z"/><path class="cls-3" d="M179.29,41.78c10.45,8.46-10.56,51.75-46.92,96.7S58.06,213,47.61,204.55s10.55-51.74,46.91-96.69S168.83,33.33,179.29,41.78Z"/><path class="cls-3" d="M65.05,202.89c-7.25,3.85-14,5.66-18,2.41-11-8.93,9.52-52,46.77-98C111.4,85.46,130,66.56,146,54c11.6-9,26.89-18.64,33.86-13h0c11,8.92-9.52,52-46.78,98-17.63,21.8-36.18,40.7-52.25,53.22A114.17,114.17,0,0,1,65.05,202.89Zm97.64-157.7a109.48,109.48,0,0,0-15.48,10.36c-16,12.44-34.4,31.23-51.95,52.91-39,48.24-55.83,88.24-47.05,95.35,4.6,3.72,16.08-1,31.47-13,16-12.44,34.4-31.23,51.94-52.91,39-48.23,55.84-88.24,47.06-95.35h0C175.8,40.2,170.23,41.18,162.69,45.19Z"/><path class="cls-3" d="M171.06,52c9.14,7.4-9.24,45.28-41.05,84.61s-65,65.21-74.18,57.81,9.24-45.28,41.06-84.61S161.91,44.56,171.06,52Z"/><path class="cls-3" d="M71.17,193c-6.39,3.4-12.38,5-15.94,2.12-10.83-8.77,12.3-50.59,40.91-86s64.69-66.72,75.52-58h0c10.83,8.77-12.29,50.59-40.91,86C115.32,156.24,99.07,172.79,85,183.75A99.39,99.39,0,0,1,71.17,193Zm85.39-137.9c-14,7.42-35.75,26.62-58.93,55.26-34.1,42.16-48.83,77.09-41.19,83.26,4,3.23,14-.93,27.39-11.39,14-10.88,30.09-27.31,45.43-46.28,34.1-42.15,48.83-77.08,41.19-83.26C168,50.72,163.15,51.61,156.56,55.11Z"/><path class="cls-3" d="M145.9,65.85a1.54,1.54,0,0,0-1.87.46L119.44,98.09,116,95.78l-8.46,11.08,3.21,2.65L100.4,123.15l-4-2.65-8.09,11.56,3.84,2.41-25,32.74a1.55,1.55,0,0,0,.33,2.2c19.88,14.39,45-23.28,45-23.28l2.52,1.75,7.36-10.83-1.28-1,8.12-11.56,2.21,1,7.53-10.5-1.89-1.34C163.09,77.49,150.12,67.86,145.9,65.85ZM77.56,159.49l17.66-22.91,13.89,7.53S94.14,169.44,77.56,159.49ZM118,134.17,104.1,125.5l10-13.67L126.26,122Zm16.42-23-11.9-10.22,17-23.31S155.36,85.73,134.44,111.14Z"/></g><path class="cls-4" d="M147.5,2.49C136.09-6.74,94.69,25.54,55,74.57S-7.56,170.83,3.85,180.05L34.62,205S92,176.29,127.09,132.87C162.4,89.22,181.9,42.64,178.27,27.39Z"/><path d="M37.33,204.62l-2.28,1.19-.55.27L34,205.7,3.24,180.8c-5.89-4.77-3.7-18.61,6.18-39,9.7-20,25.63-44.08,44.86-67.85C94.89,23.77,136.1-8,148.1,1.74h0l30.77,24.9.26.21.07.32c3.8,16-15.93,62.51-51.36,106.3C97,171.65,48.39,198.74,37.33,204.62Zm-2.59-.81c5.95-3.06,58.83-31,91.61-71.54,34.32-42.43,54.33-88.81,51.06-104.35L146.89,3.23C136.1-5.49,94.38,27.45,55.77,75.17c-19.14,23.66-35,47.63-44.62,67.49-9.32,19.2-11.76,32.56-6.7,36.65Z"/><path class="cls-4" d="M54.89,178.38l7.28-9L15.74,131.82c-2,3.61-3.86,7.13-5.47,10.46Zm15.72-19.44,7.28-9-49.07-39.7c-2.2,3.35-4.27,6.62-6.24,9.84ZM86.34,139.5l7.28-9L43.26,89.76q-3.54,4.74-6.82,9.38ZM39.16,197.81l7.28-9L4.76,155.09a65.87,65.87,0,0,0-3.38,12.16ZM149.23,61.75l7.28-9-44.62-36.1c-2.91,2.27-6,4.84-9.08,7.54Zm-47.17,58.31,7.28-9-50.62-41c-1.23,1.49-2.46,2.94-3.69,4.46s-2.4,3-3.59,4.54Zm70.18-86.74L134.45,2.75a66.79,66.79,0,0,0-11.18,5.84L165,42.32ZM133.51,81.19l7.28-9-48-38.86c-2.74,2.61-5.51,5.31-8.32,8.17Zm-15.72,19.44,7.27-9L75.17,51.27q-3.86,4.17-7.74,8.62Z"/><path d="M39.3,199.16l-39-31.52.09-.55a67.1,67.1,0,0,1,3.43-12.33l.46-1.26,43.47,35.17ZM2.42,166.85,39,196.47,45.09,189,5.2,156.68A64.09,64.09,0,0,0,2.42,166.85ZM55,179.72l-46-37.18.33-.68c1.45-3,3.25-6.42,5.5-10.5l.56-1,48.05,38.88ZM11.46,142l43.28,35,6.08-7.51L16,133.29C14.22,136.6,12.71,139.47,11.46,142Zm59.29,18.28-49.43-40,.44-.71c2.14-3.49,4.19-6.72,6.26-9.86l.59-.89,50.63,41ZM23.83,119.86l46.64,37.73,6.07-7.51L29,111.66C27.32,114.29,25.61,117,23.83,119.86Zm62.65,21L35.14,99.32l.52-.74c2.15-3,4.45-6.2,6.83-9.39l.59-.8,51.88,42ZM37.74,99l48.45,39.19,6.08-7.5L43.43,91.13C41.46,93.78,39.55,96.41,37.74,99Zm64.46,22.45L50.1,79.26l1.73-2.2c.81-1,1.61-2.06,2.45-3.09S55.9,72,56.71,71l1.87-2.26,52.11,42.15ZM52.78,79l49.14,39.76,6.07-7.51L58.85,71.45l-.67.8c-.8,1-1.61,1.93-2.41,2.92s-1.63,2-2.43,3.08Zm65.15,23L66.05,60l.65-.75c2.64-3,5.25-5.92,7.77-8.65l.61-.66,51.33,41.54ZM68.8,59.77l48.84,39.51,6.07-7.51L75.27,52.58C73.16,54.87,71,57.28,68.8,59.77Zm64.85,22.77L83,41.58l.74-.76c2.63-2.67,5.36-5.35,8.33-8.18l.61-.58,49.44,40ZM85.87,41.42l47.5,38.42,6.07-7.51L92.81,34.61C90.36,37,88.08,39.19,85.87,41.42Zm63.5,21.68L101.32,24.22l.86-.75c3.51-3,6.5-5.52,9.13-7.57l.6-.47,46,37.18ZM104.3,24.17l44.79,36.24,6.07-7.51-43.28-35C109.65,19.64,107.16,21.71,104.3,24.17Zm60.8,19.5L121.63,8.5l1.13-.72a67.19,67.19,0,0,1,11.35-5.92l.51-.2,39,31.52Zm-40.18-35L164.82,41l6.07-7.51L134.28,3.85A64.89,64.89,0,0,0,124.92,8.69Z"/><path class="cls-4" d="M178.27,27.39c11.4,9.22-11.51,56.45-51.18,105.48S46,214.18,34.62,205,46.13,148.5,85.8,99.47,166.87,18.16,178.27,27.39Z"/><path d="M53.84,202.89c-9.18,4.87-16,5.89-19.82,2.81-12-9.71,10.42-56.63,51-106.84s81.82-81.92,93.81-72.22h0c12,9.71-10.42,56.63-51,106.83-19.23,23.77-39.47,44.39-57,58A120.42,120.42,0,0,1,53.84,202.89Zm106.49-172c-18.4,9.78-46.85,35.88-73.78,69.17-38.61,47.72-62.11,95.41-51.33,104.14,5.06,4.09,17.61-1.09,34.45-14.21,17.41-13.57,37.54-34.07,56.68-57.73,38.6-47.72,62.1-95.41,51.32-104.14h0C174.41,25.49,168.31,26.67,160.33,30.9Z"/><path class="cls-4" d="M172.29,34.78c10.45,8.46-10.56,51.75-46.92,96.7S51.06,206,40.61,197.55s10.55-51.74,46.91-96.69S161.83,26.33,172.29,34.78Z"/><path d="M58.05,195.89c-7.25,3.85-14,5.66-18,2.41-11-8.93,9.52-52,46.77-98C104.4,78.46,123,59.56,139,47c11.6-9,26.89-18.64,33.86-13h0c11,8.92-9.52,52-46.78,98-17.63,21.8-36.18,40.7-52.25,53.22A114.17,114.17,0,0,1,58.05,195.89Zm97.64-157.7a109.48,109.48,0,0,0-15.48,10.36c-16,12.44-34.4,31.23-51.95,52.91-39,48.24-55.83,88.24-47.05,95.35,4.6,3.72,16.08-1,31.47-13,16-12.44,34.4-31.23,51.94-52.91,39-48.23,55.84-88.24,47.06-95.35h0C168.8,33.2,163.23,34.18,155.69,38.19Z"/><path class="cls-4" d="M164.06,45c9.14,7.4-9.24,45.28-41,84.61s-65,65.21-74.18,57.81,9.24-45.28,41.06-84.61S154.91,37.56,164.06,45Z"/><path d="M64.17,186c-6.39,3.4-12.38,5-15.94,2.12-10.83-8.77,12.3-50.59,40.91-86s64.69-66.72,75.52-58h0c10.83,8.77-12.29,50.59-40.91,86C108.32,149.24,92.07,165.79,78,176.75A99.39,99.39,0,0,1,64.17,186Zm85.39-137.9c-14,7.42-35.75,26.62-58.93,55.26-34.1,42.16-48.83,77.09-41.19,83.26,4,3.23,14-.93,27.39-11.39,14-10.88,30.09-27.31,45.43-46.28,34.1-42.15,48.83-77.08,41.19-83.26C161,43.72,156.15,44.61,149.56,48.11Z"/><path d="M138.9,58.85a1.54,1.54,0,0,0-1.87.46L112.44,91.09,109,88.78l-8.46,11.08,3.21,2.65L93.4,116.15l-4-2.65-8.09,11.56,3.84,2.41-25,32.74a1.55,1.55,0,0,0,.33,2.2c19.88,14.39,45-23.28,45-23.28l2.52,1.75,7.36-10.83-1.28-1,8.12-11.56,2.21,1,7.53-10.5-1.89-1.34C156.09,70.49,143.12,60.86,138.9,58.85ZM70.56,152.49l17.66-22.91,13.89,7.53S87.14,162.44,70.56,152.49ZM111,127.17,97.1,118.5l10-13.67L119.26,115Zm16.42-23-11.9-10.22,17-23.31S148.36,78.73,127.44,104.14Z"/></g></g></g></svg>