<svg xmlns="http://www.w3.org/2000/svg" viewBox="0 0 200.02 208.15"><defs><style>.cls-1{isolation:isolate;}.cls-2{mix-blend-mode:multiply;}.cls-3{fill:#666;}.cls-4{fill:#fff;}</style></defs><g class="cls-1"><g id="图层_2" data-name="图层 2"><g id="图层_6" data-name="图层 6"><g class="cls-2"><path class="cls-3" d="M164.69,199.41c-22.36,20.23-73.27.38-113.72-44.33S-4.14,57.73,18.21,37.5L42.27,15.73S120.17,20.48,156,60.07c36,39.8,45.54,93.66,32.76,117.57Z" transform="translate(0)"/><path class="cls-3" d="M185.18,105.59c11.41,28.58,12.65,56.74,4.27,72.43l-.17.21L165.22,200c-11.05,10-29.12,10.82-50.89,2.33-21.59-8.42-44.3-25-63.94-46.72C9.71,110.65-5,57.4,17.68,36.92L42,14.93l.33,0c.78,0,78.63,5.21,114.26,44.59A154.43,154.43,0,0,1,185.18,105.59Zm2.94,71.56c12.71-24,2.42-77.71-32.72-116.55C121.38,23,48.11,17,42.55,16.55L18.74,38.09c-22,19.9-7.27,72.14,32.82,116.46,19.48,21.53,42,38,63.34,46.31,21.19,8.26,38.68,7.54,49.26-2Z" transform="translate(0)"/><path class="cls-3" d="M11,87.06a120.32,120.32,0,0,0,3.89,11.41L69.66,48.94l-7.42-8.2Zm9.34,23.78c1.65,3.33,3.43,6.68,5.4,10L85.69,66.67l-7.42-8.21Zm12.39,21q3.08,4.53,6.51,9l62.46-56.51L94.3,76.18ZM8.39,57.22a58.82,58.82,0,0,0-.22,15.13L53.62,31.22,46.2,23ZM103.7,196.6c3.7,1.88,7.37,3.61,11,5l51.2-46.33-7.42-8.2ZM47.36,150.88c1.21,1.4,2.36,2.81,3.61,4.2s2.55,2.67,3.82,4l63-57-7.42-8.2ZM174.47,164.8,129,205.93a58.77,58.77,0,0,0,15.07,1.28L181.9,173Zm-92,18.77c3.15,2.29,6.3,4.39,9.45,6.37l57.9-52.38-7.42-8.21ZM63.91,168.14c2.76,2.57,5.54,5,8.34,7.38l61.55-55.68-7.43-8.21Z" transform="translate(0)"/><path class="cls-3" d="M183,173.06,144.41,208l-.28,0a59.64,59.64,0,0,1-15.27-1.3l-1.53-.32,47.2-42.7Zm-39.24,33.37,37-33.48-6.36-7-43.7,39.54A57,57,0,0,0,143.77,206.43ZM167,155.34l-52.15,47.18-.46-.17c-3.26-1.28-6.77-2.88-11-5l-1-.52L158.5,146ZM114.49,200.7l50.26-45.47-6.37-7-53.3,48.23C108.65,198.2,111.67,199.58,114.49,200.7ZM151,137.62,92,190.93l-.51-.32c-3.44-2.16-6.54-4.25-9.5-6.4l-.78-.57,61.23-55.4ZM91.84,189l56.87-51.45-6.36-7-58.62,53C86.28,185.32,88.94,187.12,91.84,189Zm43.07-69.06L72.27,176.56l-.53-.44c-2.75-2.3-5.57-4.79-8.37-7.4l-.63-.59,63.69-57.61ZM72.23,174.47l60.45-54.69-6.36-7-61.24,55.4C67.47,170.36,69.87,172.48,72.23,174.47Zm46.65-72.3-64.13,58-.54-.56c-.42-.45-.85-.89-1.28-1.33-.85-.89-1.71-1.77-2.54-2.69s-1.62-1.85-2.41-2.79l-1.21-1.42-.51-.59,64.13-58ZM54.83,158l61.82-55.92-6.37-7L48.46,151c.25.28.49.57.73.85.77.92,1.55,1.84,2.37,2.75s1.66,1.78,2.5,2.65Zm48-73.53L39.16,142.06l-.52-.68c-2.33-3.07-4.53-6.12-6.54-9.07l-.38-.57L94.36,75.07ZM39.37,139.73l61.24-55.4-6.36-7L33.8,132C35.53,134.52,37.4,137.12,39.37,139.73Zm47.44-73-61.24,55.4-.49-.84c-1.85-3.17-3.62-6.46-5.42-10.09l-.26-.53L78.32,57.35ZM26,119.64l58.62-53-6.37-7L21.34,111C22.88,114.09,24.39,116.92,26,119.64ZM70.77,49,14.6,99.82l-.42-1.07a121,121,0,0,1-3.91-11.47l-.13-.47L62.29,39.62ZM15.24,97.11l53.3-48.22-6.36-7L11.92,87.32C12.75,90.23,13.82,93.38,15.24,97.11Zm39.5-65.83L7.54,74l-.16-1.54A59.52,59.52,0,0,1,7.61,57.1l0-.28L46.26,21.9ZM8.8,70.7,52.51,31.16l-6.36-7-37,33.49A57.57,57.57,0,0,0,8.8,70.7Z" transform="translate(0)"/><ellipse class="cls-3" cx="115.51" cy="96.69" rx="54.58" ry="109.17" transform="translate(-35.01 102.48) rotate(-42.14)"/><path class="cls-3" d="M192.36,115.1a123.33,123.33,0,0,1,4.32,12.73c6.28,22.51,3.65,40.41-7.4,50.4s-29.12,10.82-50.89,2.33c-21.59-8.41-44.3-25-63.94-46.72C33.77,88.88,19.1,35.63,41.74,15.15c11-10,29.12-10.82,50.89-2.34,21.59,8.42,44.3,25,64,46.73C172.54,77.18,184.94,96.5,192.36,115.1ZM40.08,77.54c7.15,17.92,19.25,37.23,35.54,55.24,19.48,21.53,42,38,63.34,46.31,21.19,8.26,38.68,7.54,49.26-2s13-26.91,6.94-48.81C189,106.16,174.89,82.13,155.4,60.6s-42-38-63.34-46.31C70.87,6,53.38,6.75,42.8,16.32,29.74,28.13,29.63,51.35,40.08,77.54Z" transform="translate(0)"/><ellipse class="cls-3" cx="115.51" cy="96.69" rx="50.04" ry="100.07" transform="translate(-35.01 102.48) rotate(-42.14)"/><path class="cls-3" d="M185.93,113.51c9.86,24.71,9.69,46.72-2.75,58-10.15,9.18-26.74,9.94-46.72,2.15-19.8-7.72-40.63-22.93-58.64-42.84S46.75,88.63,41,68.16C35.28,47.5,37.7,31.07,47.85,21.89S74.58,12,94.56,19.74c19.8,7.72,40.63,22.94,58.64,42.85C168.18,79.15,179.32,96.94,185.93,113.51ZM46.48,79.25c6.73,16.88,18,34.43,32.51,50.48,17.85,19.73,38.47,34.8,58,42.43,19.4,7.56,35.41,6.91,45.09-1.85,20.13-18.22,6.64-66.06-30.09-106.66-17.85-19.73-38.47-34.8-58-42.43-19.4-7.57-35.41-6.91-45.08,1.85S37,47.69,42.56,67.74A114.24,114.24,0,0,0,46.48,79.25Z" transform="translate(0)"/><ellipse class="cls-3" cx="115.51" cy="96.69" rx="43.78" ry="87.56" transform="translate(-35.01 102.48) rotate(-42.14)"/><path class="cls-3" d="M177.29,111.4a100.31,100.31,0,0,1,3.48,10.22c5,18.12,2.92,32.53-6,40.59-18.22,16.49-59.64.51-92.32-35.62S38,47.66,56.24,31.17c8.9-8.06,23.46-8.73,41-1.9,17.34,6.76,35.57,20.08,51.34,37.52C161.38,81,171.33,96.47,177.29,111.4ZM55.14,81.25c5.73,14.36,15.43,29.84,28.49,44.28,32.1,35.48,72.52,51.41,90.1,35.51,8.43-7.64,10.39-21.49,5.52-39-4.93-17.7-16.25-36.95-31.86-54.2S113.76,37.41,96.64,30.74c-16.93-6.6-30.9-6-39.34,1.6C46.87,41.77,46.78,60.32,55.14,81.25Z" transform="translate(0)"/><polygon class="cls-3" points="117.43 131.5 55.01 50.01 126.39 69.91 146.47 115.03 117.43 131.5"/><polygon class="cls-3" points="123.9 136.1 153.8 119.84 132.06 68.86 178.56 138.16 123.9 136.1"/><line class="cls-3" x1="59.63" y1="53.29" x2="144.44" y2="113.59"/><line class="cls-3" x1="174.49" y1="135.89" x2="154.83" y2="120.64"/><polyline class="cls-3" points="117.79 129.56 101.08 82.76 125.87 71.33"/></g><path class="cls-4" d="M157.69,192.41c-22.36,20.23-73.27.38-113.72-44.33S-11.14,50.73,11.21,30.5L35.27,8.73S113.17,13.48,149,53.07c36,39.8,45.54,93.66,32.76,117.57Z" transform="translate(0)"/><path d="M178.18,98.59c11.41,28.58,12.65,56.74,4.27,72.43l-.17.21L158.22,193c-11.05,10-29.12,10.82-50.89,2.33-21.59-8.42-44.3-25-63.94-46.72C2.71,103.65-12,50.4,10.68,29.92L35,7.93l.33,0C36.1,8,114,13.16,149.58,52.54A154.43,154.43,0,0,1,178.18,98.59Zm2.94,71.56c12.71-24,2.42-77.71-32.72-116.55C114.38,16,41.11,10,35.55,9.55L11.74,31.09c-22,19.9-7.27,72.14,32.82,116.46,19.48,21.53,42,38,63.34,46.31,21.19,8.26,38.68,7.54,49.26-2Z" transform="translate(0)"/><path class="cls-4" d="M4,80.06A120.32,120.32,0,0,0,7.92,91.47L62.66,41.94l-7.42-8.2Zm9.34,23.78c1.65,3.33,3.43,6.68,5.4,10L78.69,59.67l-7.42-8.21Zm12.39,21q3.07,4.53,6.51,9L94.73,77.39,87.3,69.18ZM1.39,50.22a58.82,58.82,0,0,0-.22,15.13L46.62,24.22,39.2,16ZM96.7,189.6c3.7,1.88,7.37,3.61,11,5l51.2-46.33-7.42-8.2ZM40.36,143.88c1.21,1.4,2.36,2.81,3.61,4.2s2.55,2.67,3.82,4l63-57-7.42-8.2ZM167.47,157.8,122,198.93a58.77,58.77,0,0,0,15.07,1.28L174.9,166Zm-92,18.77c3.15,2.29,6.3,4.39,9.45,6.37l57.9-52.38-7.42-8.21ZM56.91,161.14c2.76,2.57,5.54,5,8.34,7.38l61.55-55.68-7.43-8.21Z" transform="translate(0)"/><path d="M176,166.06,137.41,201l-.28,0a59.64,59.64,0,0,1-15.27-1.3l-1.53-.32,47.2-42.7Zm-39.24,33.37,37-33.48-6.36-7-43.7,39.54A57,57,0,0,0,136.77,199.43ZM160,148.34l-52.15,47.18-.46-.17c-3.26-1.28-6.77-2.88-11-5l-1-.52L151.5,139ZM107.49,193.7l50.26-45.47-6.37-7-53.3,48.23C101.65,191.2,104.67,192.58,107.49,193.7ZM144,130.62,85,183.93l-.51-.32c-3.44-2.16-6.54-4.25-9.5-6.4l-.78-.57,61.23-55.4ZM84.84,182l56.87-51.45-6.36-7-58.62,53C79.28,178.32,81.94,180.12,84.84,182Zm43.07-69.06L65.27,169.56l-.53-.44c-2.75-2.3-5.57-4.79-8.37-7.4l-.63-.59,63.69-57.61ZM65.23,167.47l60.45-54.69-6.36-7-61.24,55.4C60.47,163.36,62.87,165.48,65.23,167.47Zm46.65-72.3-64.13,58-.54-.56c-.42-.45-.85-.89-1.28-1.33-.85-.89-1.71-1.77-2.54-2.69s-1.62-1.85-2.41-2.79l-1.21-1.42-.51-.59,64.13-58ZM47.83,151l61.82-55.92-6.37-7L41.46,144c.25.28.49.57.73.85.77.92,1.55,1.84,2.37,2.75s1.66,1.78,2.5,2.65Zm48-73.53L32.16,135.06l-.52-.68c-2.33-3.07-4.53-6.12-6.54-9.07l-.38-.57L87.36,68.07ZM32.37,132.73l61.24-55.4-6.36-7L26.8,125C28.53,127.52,30.4,130.12,32.37,132.73Zm47.44-73-61.24,55.4-.49-.84c-1.85-3.17-3.62-6.46-5.42-10.09l-.26-.53L71.32,50.35ZM19,112.64l58.62-53-6.37-7L14.34,104C15.88,107.09,17.39,109.92,19,112.64ZM63.77,42,7.6,92.82l-.42-1.07A121,121,0,0,1,3.27,80.28l-.13-.47L55.29,32.62ZM8.24,90.11l53.3-48.22-6.36-7L4.92,80.32C5.75,83.23,6.82,86.38,8.24,90.11Zm39.5-65.83L.54,67,.38,65.43A59.52,59.52,0,0,1,.61,50.1l.05-.28L39.26,14.9ZM1.8,63.7,45.51,24.16l-6.36-7-37,33.49A57.57,57.57,0,0,0,1.8,63.7Z" transform="translate(0)"/><ellipse class="cls-4" cx="108.51" cy="89.69" rx="54.58" ry="109.17" transform="translate(-32.13 95.98) rotate(-42.14)"/><path d="M185.36,108.1a123.33,123.33,0,0,1,4.32,12.73c6.28,22.51,3.65,40.41-7.4,50.4s-29.12,10.82-50.89,2.33c-21.59-8.41-44.3-25-63.94-46.72C26.77,81.88,12.1,28.63,34.74,8.15c11-10,29.12-10.82,50.89-2.34,21.59,8.42,44.3,25,64,46.73C165.54,70.18,177.94,89.5,185.36,108.1ZM33.08,70.54c7.15,17.92,19.25,37.23,35.54,55.24,19.48,21.53,42,38,63.34,46.31,21.19,8.26,38.68,7.54,49.26-2s13-26.91,6.94-48.81C182,99.16,167.89,75.13,148.4,53.6s-42-38-63.34-46.31C63.87-1,46.38-.25,35.8,9.32,22.74,21.13,22.63,44.35,33.08,70.54Z" transform="translate(0)"/><ellipse class="cls-4" cx="108.51" cy="89.69" rx="50.04" ry="100.07" transform="translate(-32.13 95.98) rotate(-42.14)"/><path d="M178.93,106.51c9.86,24.71,9.69,46.72-2.75,58-10.15,9.18-26.74,9.94-46.72,2.15-19.8-7.72-40.63-22.93-58.64-42.84S39.75,81.63,34,61.16C28.28,40.5,30.7,24.07,40.85,14.89S67.58,5,87.56,12.74c19.8,7.72,40.63,22.94,58.64,42.85C161.18,72.15,172.32,89.94,178.93,106.51ZM39.48,72.25c6.73,16.88,18,34.43,32.51,50.48,17.85,19.73,38.47,34.8,58,42.43,19.4,7.56,35.41,6.91,45.09-1.85,20.13-18.22,6.64-66.06-30.09-106.66-17.85-19.73-38.47-34.8-58-42.43-19.4-7.57-35.41-6.91-45.08,1.85S30,40.69,35.56,60.74A114.24,114.24,0,0,0,39.48,72.25Z" transform="translate(0)"/><ellipse class="cls-4" cx="108.51" cy="89.69" rx="43.78" ry="87.56" transform="translate(-32.13 95.98) rotate(-42.14)"/><path d="M170.29,104.4a100.31,100.31,0,0,1,3.48,10.22c5,18.12,2.92,32.53-6,40.59-18.22,16.49-59.64.51-92.32-35.62S31,40.66,49.24,24.17c8.9-8.06,23.46-8.73,41-1.9,17.34,6.76,35.57,20.08,51.34,37.52C154.38,74,164.33,89.47,170.29,104.4ZM48.14,74.25c5.73,14.36,15.43,29.84,28.49,44.28,32.1,35.48,72.52,51.41,90.1,35.51,8.43-7.64,10.39-21.49,5.52-39-4.93-17.7-16.25-36.95-31.86-54.2S106.76,30.41,89.64,23.74c-16.93-6.6-30.9-6-39.34,1.6C39.87,34.77,39.78,53.32,48.14,74.25Z" transform="translate(0)"/><polygon points="110.43 124.5 48.01 43.01 119.39 62.91 139.47 108.03 110.43 124.5"/><polygon points="116.9 129.1 146.8 112.84 125.06 61.86 171.56 131.16 116.9 129.1"/><line x1="52.63" y1="46.29" x2="137.44" y2="106.59"/><line x1="167.49" y1="128.89" x2="147.83" y2="113.64"/><polyline points="110.79 122.56 94.08 75.76 118.87 64.33"/></g></g></g></svg>