<svg xmlns="http://www.w3.org/2000/svg" viewBox="0 0 171.58 175.44"><defs><style>.cls-1{fill:#ffd35a;}</style></defs><g id="图层_2" data-name="图层 2"><g id="图层_6" data-name="图层 6"><circle class="cls-1" cx="85.79" cy="87.72" r="63.62"/><path d="M85.79,24.1A63.62,63.62,0,1,1,22.17,87.72,63.63,63.63,0,0,1,85.79,24.1m0-.5a64.12,64.12,0,1,0,64.12,64.12A64.19,64.19,0,0,0,85.79,23.6Z"/><path d="M85.79,151.34a63.62,63.62,0,1,1,63.62-63.62A63.69,63.69,0,0,1,85.79,151.34Zm0-122.76a59.15,59.15,0,1,0,59.14,59.14A59.21,59.21,0,0,0,85.79,28.58Z"/><path d="M85.79,24.1A63.62,63.62,0,1,1,22.17,87.72,63.69,63.69,0,0,1,85.79,24.1m0,122.77A59.15,59.15,0,1,0,26.65,87.72a59.22,59.22,0,0,0,59.14,59.15m0-123.27a64.12,64.12,0,1,0,64.12,64.12A64.19,64.19,0,0,0,85.79,23.6Zm0,122.77a58.65,58.65,0,1,1,58.64-58.65,58.71,58.71,0,0,1-58.64,58.65Z"/><path d="M72,54.5a7.9,7.9,0,0,1-2.64-.45C61,51.1,57.58,34.58,57.22,32.71a2.24,2.24,0,0,1,4.39-.86c1.2,6.12,4.75,16.4,9.2,18,.54.19,2.18.78,5-1.55,2.26-1.88,4-3.44,5.48-4.71,7-6.15,7.88-6.34,15.84-3.43,6.31,2.32,15.21-4.29,18.12-7a2.24,2.24,0,0,1,3.08,3.26c-.51.48-12.55,11.71-22.65,8-3.17-1.16-4.86-1.78-5.92-1.55s-2.69,1.62-5.52,4.1c-1.46,1.29-3.27,2.88-5.56,4.79A10.45,10.45,0,0,1,72,54.5Z"/><path d="M59.42,30a2.24,2.24,0,0,1,2.19,1.81c1.2,6.12,4.75,16.4,9.2,18a3.07,3.07,0,0,0,1.13.21,6.14,6.14,0,0,0,3.84-1.76c2.26-1.88,4-3.44,5.48-4.71,4.22-3.71,6.22-5.25,8.88-5.25,1.76,0,3.8.67,7,1.82a8.17,8.17,0,0,0,2.87.49c5.89,0,12.76-5.18,15.25-7.53a2.28,2.28,0,0,1,1.54-.61,2.24,2.24,0,0,1,1.54,3.87c-.44.41-9.39,8.76-18.31,8.76a12.54,12.54,0,0,1-4.34-.74c-2.72-1-4.35-1.6-5.43-1.6a2.46,2.46,0,0,0-.49,0c-1.14.25-2.69,1.62-5.52,4.1-1.46,1.29-3.27,2.88-5.56,4.79A10.45,10.45,0,0,1,72,54.5a7.9,7.9,0,0,1-2.64-.45C61,51.1,57.58,34.58,57.22,32.71A2.22,2.22,0,0,1,59,30.09a2.1,2.1,0,0,1,.43-.05m0-.5a2.33,2.33,0,0,0-.53.06,2.74,2.74,0,0,0-1.75,1.15,2.77,2.77,0,0,0-.41,2.06c.37,1.9,3.86,18.67,12.41,21.71A8.43,8.43,0,0,0,72,55a11,11,0,0,0,7-2.89c2.26-1.89,4-3.47,5.5-4.73l.07-.07c2.67-2.35,4.28-3.77,5.3-4a2,2,0,0,1,.38,0c1,0,2.59.59,5.25,1.57a13.25,13.25,0,0,0,4.52.77c9.14,0,18.27-8.54,18.65-8.9a2.74,2.74,0,1,0-3.76-4c-2.18,2-9.1,7.39-14.91,7.39a7.85,7.85,0,0,1-2.7-.46c-3-1.08-5.21-1.85-7.13-1.85-2.82,0-4.87,1.55-9.21,5.38-1.43,1.25-3.2,2.81-5.47,4.7a5.81,5.81,0,0,1-3.52,1.64,2.61,2.61,0,0,1-1-.18c-4-1.43-7.62-11.15-8.88-17.6a2.74,2.74,0,0,0-2.68-2.22Z"/><path d="M114.71,113.94a20.45,20.45,0,0,1-7.86-1.45,12,12,0,0,1-7.06-7.15c-2-5.91-4-7.22-15.12-6-3.39.38-5.9-.24-7.65-1.9-3.15-3-2.85-8.34-2.5-14.55.16-2.86.33-5.82.2-8.83-.14-3.5.59-5.92,2.22-7.4,2.3-2.07,5.55-1.59,8.41-1.17s4.89.63,5.89-.48c4.92-5.47,10.19-10.07,20.45-6.26,6.21,2.31,17.11-7.33,20.45-10.88A2.24,2.24,0,0,1,135.4,51c-1.52,1.62-15.17,15.77-25.27,12C102.45,60.14,99,63.14,94.57,68,91.89,71,87.9,70.43,84.7,70c-1.89-.28-4-.59-4.76.07-.26.24-.86,1.09-.75,3.89.14,3.23,0,6.43-.2,9.26-.28,4.88-.54,9.5,1.1,11,.73.69,2.1.92,4.07.7,11.16-1.27,16.68-.28,19.86,8.95a7.82,7.82,0,0,0,4.56,4.48c4.54,1.91,11,1.37,16.8-1.4,11-5.22,19.18-2.5,19.52-2.38a2.24,2.24,0,1,1-1.46,4.23c-.26-.08-6.9-2.2-16.14,2.19A29.71,29.71,0,0,1,114.71,113.94Z"/><path d="M133.77,47.2a2.21,2.21,0,0,1,1.53.61,2.23,2.23,0,0,1,.1,3.16c-1.34,1.44-12.16,12.65-21.63,12.65a10.48,10.48,0,0,1-3.64-.63,15.35,15.35,0,0,0-5.36-1.11c-4.24,0-7,2.57-10.2,6.16a7.44,7.44,0,0,1-5.88,2.31,26.71,26.71,0,0,1-4-.39,24.29,24.29,0,0,0-3.12-.32,2.53,2.53,0,0,0-1.64.39c-.26.24-.86,1.09-.75,3.89.14,3.23,0,6.43-.2,9.26-.28,4.88-.54,9.5,1.1,11a3.93,3.93,0,0,0,2.74.78,12.93,12.93,0,0,0,1.33-.08,58.14,58.14,0,0,1,6.53-.45c6.92,0,10.84,2.18,13.33,9.4a7.82,7.82,0,0,0,4.56,4.48,15.84,15.84,0,0,0,6.14,1.13A25.25,25.25,0,0,0,125.38,107a31.19,31.19,0,0,1,13.43-3.19,20.13,20.13,0,0,1,6.09.81,2.24,2.24,0,0,1-.72,4.36,2.14,2.14,0,0,1-.74-.13,16,16,0,0,0-4.63-.58A26.85,26.85,0,0,0,127.3,111a29.71,29.71,0,0,1-12.59,2.94,20.45,20.45,0,0,1-7.86-1.45,12,12,0,0,1-7.06-7.15c-1.58-4.58-3.13-6.4-8.92-6.4a55,55,0,0,0-6.2.44,17.26,17.26,0,0,1-1.85.11,8.07,8.07,0,0,1-5.8-2c-3.15-3-2.85-8.34-2.5-14.55.16-2.86.33-5.82.2-8.83-.14-3.5.59-5.92,2.22-7.4a6.67,6.67,0,0,1,4.66-1.53,27.52,27.52,0,0,1,3.75.36,23.76,23.76,0,0,0,3.37.34,3.19,3.19,0,0,0,2.52-.82c3.66-4.07,7.52-7.66,13.48-7.66a20.21,20.21,0,0,1,7,1.4,6,6,0,0,0,2.09.35c6.32,0,15.37-8,18.36-11.23a2.22,2.22,0,0,1,1.63-.71m0-.5a2.75,2.75,0,0,0-2,.87c-2.69,2.87-11.78,11.07-18,11.07a5.34,5.34,0,0,1-1.92-.32,20.49,20.49,0,0,0-7.14-1.43c-6.29,0-10.29,3.87-13.85,7.83a2.74,2.74,0,0,1-2.15.65,24.85,24.85,0,0,1-3.3-.33,26.86,26.86,0,0,0-3.82-.37,7.13,7.13,0,0,0-5,1.66c-1.76,1.58-2.54,4.13-2.39,7.79.12,3,0,5.92-.2,8.77-.36,6.35-.66,11.82,2.65,15A8.54,8.54,0,0,0,82.82,100a16.18,16.18,0,0,0,1.91-.12,56.87,56.87,0,0,1,6.14-.43c5.44,0,6.88,1.51,8.45,6.06a12.52,12.52,0,0,0,7.33,7.45,20.83,20.83,0,0,0,8.06,1.49,30.14,30.14,0,0,0,12.8-3,26.41,26.41,0,0,1,11.3-2.73,15.38,15.38,0,0,1,4.48.56,2.64,2.64,0,0,0,.89.15,2.74,2.74,0,0,0,2.58-1.85,2.74,2.74,0,0,0-1.7-3.48,20.7,20.7,0,0,0-6.25-.84,31.73,31.73,0,0,0-13.65,3.24A24.9,24.9,0,0,1,114.72,109a15.31,15.31,0,0,1-5.94-1.09,7.35,7.35,0,0,1-4.29-4.18c-2.41-7-6.28-9.74-13.8-9.74a60.17,60.17,0,0,0-6.58.45,12,12,0,0,1-1.28.08,3.52,3.52,0,0,1-2.4-.65c-1.46-1.38-1.2-6.09-.94-10.65.16-2.85.34-6.06.2-9.32-.11-2.78.51-3.42.58-3.49s.43-.26,1.31-.26a22.8,22.8,0,0,1,3,.32,29,29,0,0,0,4.07.39,7.92,7.92,0,0,0,6.25-2.47c3.06-3.4,5.73-6,9.83-6A14.78,14.78,0,0,1,110,63.46a11,11,0,0,0,3.82.66c9.72,0,20.77-11.5,22-12.81a2.68,2.68,0,0,0,.73-2,2.73,2.73,0,0,0-2.73-2.65Z"/><path d="M76.32,137.66a5.66,5.66,0,0,1-2.63-.68c-4.71-2.42-8-11.17-5.23-17.93a113.9,113.9,0,0,0,4.79-13.21,2.22,2.22,0,0,1,2.26-1.66c1.76.07,10.66.63,13.68,4.2a4.61,4.61,0,0,1,1.14,3.38A16.18,16.18,0,0,0,93.6,113c3,.93,6.78,2.1,8.37,5.32a8.51,8.51,0,0,1,0,6.85c-2.68,7.33-9,7.39-13.69,7.44-3.66,0-6,.15-7.08,2A5.78,5.78,0,0,1,76.32,137.66Zm.73-28.89c-.67,2.17-2.06,6.27-4.46,12-2.11,5,.82,11,3.14,12.22.42.21.89.45,1.64-.76,2.47-4,6.92-4.06,10.85-4.1,4.9,0,8-.29,9.53-4.49a4.41,4.41,0,0,0,.21-3.34c-.74-1.5-3.37-2.31-5.69-3-3.06-1-6.86-2.13-6.41-5.84C85.61,110.48,81.68,109.2,77.05,108.77Z"/><path d="M75.4,104.17h.11c1.76.07,10.66.63,13.68,4.21a4.57,4.57,0,0,1,1.14,3.37A16.18,16.18,0,0,0,93.6,113c3,.93,6.78,2.1,8.37,5.32a8.51,8.51,0,0,1,0,6.85c-2.68,7.33-9,7.39-13.69,7.44-3.66,0-6,.15-7.08,2a5.78,5.78,0,0,1-4.86,3.07,5.66,5.66,0,0,1-2.63-.68c-4.71-2.42-8-11.17-5.22-17.93a114.73,114.73,0,0,0,4.78-13.21,2.23,2.23,0,0,1,2.15-1.67m.87,29c.3,0,.65-.2,1.1-.93,2.47-4,6.92-4.06,10.85-4.1,4.9,0,8-.29,9.53-4.49a4.41,4.41,0,0,0,.21-3.34c-.74-1.5-3.37-2.31-5.69-3-3.06-1-6.86-2.13-6.41-5.84-.25-1-4.18-2.24-8.81-2.67-.67,2.17-2.06,6.27-4.46,12-2.11,5,.82,11,3.14,12.22a1.27,1.27,0,0,0,.54.17m-.87-29.5h0a2.73,2.73,0,0,0-2.63,2A115.64,115.64,0,0,1,68,118.86c-2.92,7,.56,16,5.46,18.57a6.33,6.33,0,0,0,2.86.73,6.22,6.22,0,0,0,5.28-3.31c1-1.59,3.18-1.7,6.67-1.73,4.79-.05,11.35-.11,14.15-7.77a9,9,0,0,0,0-7.25c-1.69-3.41-5.56-4.61-8.68-5.57a23,23,0,0,1-2.9-1,5.08,5.08,0,0,0-1.27-3.43c-3.16-3.73-12.25-4.31-14-4.38Zm.87,29a.88.88,0,0,1-.31-.12c-2.13-1.09-4.88-6.86-2.91-11.58,2.22-5.3,3.58-9.22,4.36-11.67,4.62.49,7.57,1.67,7.94,2.22-.4,4,3.74,5.3,6.77,6.24,2.12.65,4.75,1.47,5.39,2.77a4,4,0,0,1-.23,2.94c-1.43,3.91-4.24,4.13-9.07,4.17-4,0-8.65.09-11.27,4.34-.31.51-.55.69-.67.69Z"/><path d="M34.16,123.15a2.27,2.27,0,0,1-2.24-2.38c0-.62,1.08-15.33,10.86-20.22a10.66,10.66,0,0,0,5.66-8.38c.5-3.86-.72-7.84-3.06-9.92a18.1,18.1,0,0,0-9.94-4.72,2.25,2.25,0,0,1-1.84-1.16,2.21,2.21,0,0,1,0-2.16c.44-.8,4.41-7.67,10.27-8.79.69-2.09-1.48-10.7-4.82-18.94A2.24,2.24,0,1,1,43.2,44.8c2.2,5.43,7,18.55,4.47,23a3.83,3.83,0,0,1-2.78,1.94c-2.09.31-4.13,2.23-5.57,4a24.05,24.05,0,0,1,9,5.12c3.46,3.07,5.23,8.51,4.52,13.86a15.08,15.08,0,0,1-8.09,11.8c-7.5,3.75-8.38,16.36-8.39,16.49A2.23,2.23,0,0,1,34.16,123.15Z"/><path d="M41.12,43.4a2.22,2.22,0,0,1,2.08,1.4c2.2,5.43,7,18.55,4.47,23a3.83,3.83,0,0,1-2.78,1.94c-2.09.31-4.13,2.23-5.57,4a24.05,24.05,0,0,1,9,5.12c3.46,3.07,5.23,8.51,4.52,13.86a15.08,15.08,0,0,1-8.09,11.8c-7.5,3.75-8.38,16.36-8.39,16.49a2.23,2.23,0,0,1-2.23,2.1,2.27,2.27,0,0,1-2.24-2.38c0-.62,1.08-15.33,10.86-20.22a10.66,10.66,0,0,0,5.66-8.38c.5-3.86-.72-7.84-3.06-9.92a18.1,18.1,0,0,0-9.94-4.72,2.25,2.25,0,0,1-1.84-1.16,2.21,2.21,0,0,1,0-2.16c.44-.8,4.41-7.67,10.27-8.79.69-2.09-1.48-10.7-4.82-18.94a2.25,2.25,0,0,1,1.23-2.92,2.28,2.28,0,0,1,.84-.16m0-.5h0a2.76,2.76,0,0,0-1,.2,2.72,2.72,0,0,0-1.51,3.56C42,55.05,43.81,62.8,43.46,65c-5.91,1.34-9.86,8.17-10.3,9a2.72,2.72,0,0,0,0,2.65A2.78,2.78,0,0,0,35.41,78a17.93,17.93,0,0,1,9.64,4.59c2.22,2,3.38,5.78,2.89,9.49a10.14,10.14,0,0,1-5.38,8c-10,5-11.1,20-11.14,20.64a2.72,2.72,0,0,0,.67,2,2.94,2.94,0,0,0,2,1h0a2.75,2.75,0,0,0,2.76-2.57c0-.12.87-12.46,8.12-16.08a15.54,15.54,0,0,0,8.36-12.18c.72-5.51-1.11-11.12-4.68-14.29a25.06,25.06,0,0,0-8.51-5c1.14-1.28,3-3,4.78-3.25A4.28,4.28,0,0,0,48.1,68.1c2.59-4.52-1.67-16.66-4.44-23.49a2.72,2.72,0,0,0-2.54-1.71Z"/><path d="M68.9,171.8a2.14,2.14,0,0,1-.5-.06,85.81,85.81,0,0,1-50.48-31.53,2.5,2.5,0,0,1,4-3.06,80.86,80.86,0,0,0,47.52,29.7,2.5,2.5,0,0,1-.5,5Zm-57-43.08a2.49,2.49,0,0,1-2.22-1.34,85.84,85.84,0,0,1,53-122.29A2.5,2.5,0,1,1,64,9.9,80.84,80.84,0,0,0,14.13,125.06a2.5,2.5,0,0,1-2.21,3.66Z"/><polygon points="51.63 1.76 61.92 7.91 55.77 18.2 62.75 16.44 68.9 6.15 58.61 0 51.63 1.76"/><path d="M108.23,170.45a2.5,2.5,0,0,1-.67-4.91A80.84,80.84,0,0,0,157.45,50.38a2.5,2.5,0,1,1,4.43-2.31,85.83,85.83,0,0,1-53,122.29A2.57,2.57,0,0,1,108.23,170.45ZM151.68,39.27a2.48,2.48,0,0,1-2-1A80.76,80.76,0,0,0,102.17,8.6a2.5,2.5,0,0,1,1-4.9,85.82,85.82,0,0,1,50.47,31.54,2.5,2.5,0,0,1-2,4Z"/><polygon points="119.95 173.69 109.65 167.54 115.81 157.25 108.83 159 102.68 169.29 112.97 175.44 119.95 173.69"/></g></g></svg>