<svg xmlns="http://www.w3.org/2000/svg" height="443.85" viewBox="0 0 462.18 443.85"><g id="图层_2" data-name="图层 2"><g id="图层_6" data-name="图层 6"><path d="M260.54,256.3a14,14,0,0,0,2.6,10.09L379.86,425.16l-122-155.67a14,14,0,0,0-9.09-5.21c0,.26-.1.5-.1.77l-2,137.43-2-137.43c0-.27-.08-.51-.1-.77a14,14,0,0,0-9.09,5.21l-122,155.67L230.19,266.39a14,14,0,0,0,2.6-10.09c-.15.05-.29.05-.44.1L105.71,300.07l126-47.67h0a14,14,0,0,0-7.94-7.71L31.15,171.8l193.63,66.77a14,14,0,0,0,10.84-.73L159.55,134.36,238.9,235.6a14,14,0,0,0,4.72-10.25l3-210.13,3.05,210.13a14,14,0,0,0,4.72,10.25l79.35-101.24L257.71,237.84a14,14,0,0,0,10.84.73L462.18,171.8,269.56,244.68a14,14,0,0,0-7.94,7.71h0l126,47.67L261,256.4C260.83,256.35,260.69,256.35,260.54,256.3ZM397,56.93l29.89,10.31L397.13,56h0A3.28,3.28,0,0,1,399,54.17L444.47,37,398.76,52.73a3.32,3.32,0,0,1-2.56-.18l18-24.43L395.43,52a3.26,3.26,0,0,1-1.11-2.42L393.6,0l-.72,49.6A3.3,3.3,0,0,1,391.76,52L373,28.12l18,24.43a3.32,3.32,0,0,1-2.56.18L342.72,37l45.47,17.21A3.33,3.33,0,0,1,390.07,56h0L360.32,67.24l29.9-10.31.1,0a3.3,3.3,0,0,1-.61,2.38L362.15,96.77,391,60a3.29,3.29,0,0,1,2.14-1.23,1.25,1.25,0,0,1,0,.19l.47,32.44L394.07,59c0-.07,0-.12,0-.19A3.33,3.33,0,0,1,396.24,60L425,96.77,397.49,59.29a3.31,3.31,0,0,1-.62-2.38ZM35.51,417.78l19.56,6.74-19.46-7.36h0A2.11,2.11,0,0,1,36.83,416l29.76-11.26L36.68,415a2.21,2.21,0,0,1-1.68-.11l11.75-16L34.5,414.56a2.17,2.17,0,0,1-.73-1.58l-.47-32.46L32.83,413a2.17,2.17,0,0,1-.73,1.58L19.84,398.92l11.75,16a2.18,2.18,0,0,1-1.67.11L0,404.71,29.76,416A2.15,2.15,0,0,1,31,417.16h0l-19.46,7.36,19.56-6.74.07,0a2.14,2.14,0,0,1-.4,1.56l-18,24.53L31.57,419.8A2.14,2.14,0,0,1,33,419a.5.5,0,0,1,0,.12l.31,21.23.3-21.23s0-.08,0-.12a2.14,2.14,0,0,1,1.4.81l18.85,24.05-18-24.53a2.19,2.19,0,0,1-.4-1.56Z"/></g></g></svg>