<svg xmlns="http://www.w3.org/2000/svg" viewBox="0 0 220.74 200.3"><defs><style>.cls-1{fill:#666;}.cls-1,.cls-2{stroke:#666;}.cls-1,.cls-3{stroke-miterlimit:10;stroke-width:1.5px;}.cls-2,.cls-4{fill:none;stroke-linecap:round;stroke-linejoin:round;stroke-width:1.7px;}.cls-3{fill:#fff;}.cls-3,.cls-4{stroke:#000;}</style></defs><g id="图层_2" data-name="图层 2"><g id="图层_6" data-name="图层 6"><path class="cls-1" d="M34.89,25.19c20.51-28,76.9-21.6,126,14.32S233,127.25,212.51,155.25l-19.67,26.86S110.33,199.59,66.9,167.79C23.24,135.82,5.32,81.21,15.23,52Z" transform="translate(0 0)"/><path class="cls-1" d="M212.77,100.39a118.81,118.81,0,0,0-5.75-11L159.2,154.66l9,6.6Zm-13.3-22.62c-2.22-3.07-4.58-6.12-7.14-9.13l-52.57,71.79,9,6.59ZM183.37,59c-2.59-2.62-5.32-5.2-8.16-7.73l-54.89,75,9,6.59Zm36.55,72.46a63.22,63.22,0,0,0-2-16.18L178.65,168.9l9,6.59ZM42.39,69.32l9,6.58L99.09,10.51A119.37,119.37,0,0,0,86.84,8.37Zm19.47,14.2,9,6.58,52.43-71.9c-3.65-1.52-7.27-2.84-10.87-4ZM22.92,55.12l9,6.57L71.13,8a63.16,63.16,0,0,0-16,3ZM165.24,42.94c-1.47-1.15-2.88-2.32-4.4-3.43s-3.07-2.11-4.6-3.17L100.87,112l9,6.59Zm-19.91-13.6c-3.28-1.94-6.55-3.76-9.84-5.45L81.43,97.71l9,6.59Z" transform="translate(0 0)"/><path class="cls-1" d="M15.23,52C35.74,24,92.12,30.45,141.17,66.37s72.18,87.73,51.67,115.74S116,203.7,66.9,167.79-5.28,80.05,15.23,52Z" transform="translate(0 0)"/><path class="cls-1" d="M22.63,57.46c18.8-25.67,70.49-19.79,115.45,13.13s66.16,80.43,47.36,106.1S115,196.49,70,163.56,3.83,83.14,22.63,57.46Z" transform="translate(0 0)"/><path class="cls-1" d="M31,65.51C47.49,43.05,92.71,48.19,132.05,77s57.9,70.37,41.45,92.83-61.68,17.32-101-11.48S14.58,88,31,65.51Z" transform="translate(0 0)"/><polygon class="cls-2" points="134.5 176.28 91.25 144.12 68.13 59.2 111.13 89.29 134.5 176.28"/><polygon class="cls-2" points="34.47 102.59 78.12 134.21 166.06 130.81 124.46 98.81 34.47 102.59"/><line class="cls-2" x1="121.92" y1="131.8" x2="80.18" y2="101.28"/><path class="cls-3" d="M27.89,18.19c20.51-28,76.9-21.6,126,14.32S226,120.25,205.51,148.25l-19.67,26.86S103.33,192.59,59.9,160.79C16.24,128.82-1.68,74.21,8.23,45Z" transform="translate(0 0)"/><path class="cls-3" d="M205.77,93.39a118.81,118.81,0,0,0-5.75-11L152.2,147.66l9,6.6Zm-13.3-22.62c-2.22-3.07-4.58-6.12-7.14-9.13l-52.57,71.79,9,6.59ZM176.37,52c-2.59-2.62-5.32-5.2-8.16-7.73l-54.89,75,9,6.59Zm36.55,72.46a63.22,63.22,0,0,0-2-16.18L171.65,161.9l9,6.59ZM35.39,62.32l9,6.58L92.09,3.51A119.37,119.37,0,0,0,79.84,1.37Zm19.47,14.2,9,6.58,52.43-71.9c-3.65-1.52-7.27-2.84-10.87-4ZM15.92,48.12l9,6.57L64.13,1a63.16,63.16,0,0,0-16,3ZM158.24,35.94c-1.47-1.15-2.88-2.32-4.4-3.43s-3.07-2.11-4.6-3.17L93.87,105l9,6.59Zm-19.91-13.6c-3.28-1.94-6.55-3.76-9.84-5.45L74.43,90.71l9,6.59Z" transform="translate(0 0)"/><path class="cls-3" d="M8.23,45C28.74,17,85.12,23.45,134.17,59.37s72.18,87.73,51.67,115.74S109,196.7,59.9,160.79-12.28,73.05,8.23,45Z" transform="translate(0 0)"/><path class="cls-3" d="M15.63,50.46c18.8-25.67,70.49-19.79,115.45,13.13s66.16,80.43,47.36,106.1S108,189.49,63,156.56-3.17,76.14,15.63,50.46Z" transform="translate(0 0)"/><path class="cls-3" d="M24,58.51C40.49,36.05,85.71,41.19,125.05,70s57.9,70.37,41.45,92.83-61.68,17.32-101-11.48S7.58,81,24,58.51Z" transform="translate(0 0)"/><polygon class="cls-4" points="127.5 169.28 84.25 137.12 61.13 52.2 104.13 82.29 127.5 169.28"/><polygon class="cls-4" points="27.47 95.59 71.12 127.21 159.06 123.81 117.46 91.81 27.47 95.59"/><line class="cls-4" x1="114.92" y1="124.8" x2="73.18" y2="94.28"/></g></g></svg>