<svg xmlns="http://www.w3.org/2000/svg" viewBox="0 0 238.34 235.69"><defs><style>.cls-1,.cls-2{fill:#666;}.cls-1{stroke:#666;}.cls-1,.cls-3{stroke-miterlimit:10;stroke-width:1.5px;}.cls-3{fill:#fff;stroke:#000;}</style></defs><g id="图层_2" data-name="图层 2"><g id="图层_6" data-name="图层 6"><path class="cls-1" d="M30.68,186.76c28.86,48.87,95.61,62.88,149.09,31.3s73.46-96.8,44.61-145.67c-3.31-5.59-9.72-16.46-9.72-16.46S112.93-3.33,65.57,24.63C18,52.74,4.66,124.14,21,170.3,25.61,178.16,27.51,181.39,30.68,186.76Z"/><path class="cls-1" d="M188.21,75.86l-9.81,5.79,49.32,83.53A112.17,112.17,0,0,0,233,151.65ZM167,88.37l-9.81,5.8,56,94.86a117.16,117.16,0,0,0,7.2-10.23Zm-21.2,12.52-9.82,5.8,59.28,100.4q4.54-3.74,8.64-7.79Zm63.61-37.55-9.82,5.79,37.33,63.23a99.18,99.18,0,0,0-.06-22.52ZM61,151l-9.82,5.79,44.76,75.8a112.24,112.24,0,0,0,14.38,1.94Zm63.61-37.56-9.82,5.8,59.94,101.52c1.68-.89,3.39-1.69,5-2.67s3.19-2.09,4.78-3.13ZM30,169.28l27.46,46.51a100.12,100.12,0,0,0,19.69,10.93L39.8,163.49ZM82.2,138.45l-9.81,5.8,53.39,90.43a117.19,117.19,0,0,0,12.43-1.37Zm21.2-12.52-9.81,5.8,58.1,98.4q5.53-1.62,11-3.8Z"/><path class="cls-1" d="M21,170.3c28.86,48.87,95.61,62.88,149.09,31.3s73.46-96.8,44.61-145.67S119.06-6.95,65.57,24.63-7.89,121.43,21,170.3Z"/><path class="cls-1" d="M29,165.53c26.45,44.8,87.64,57.64,136.67,28.7S233,105.49,206.59,60.7,119,3.06,69.92,32,2.59,120.74,29,165.53Z"/><ellipse class="cls-1" cx="117.81" cy="113.12" rx="90.21" ry="82.42" transform="translate(-41.15 75.61) rotate(-30.56)"/><path class="cls-2" d="M179.91,102.68c-7.68-17.8-30.69-13-30.69-13,9.09-13.09,1.18-23.91,1.18-23.91-13.25-21-42.05-4.63-42.05-4.63L97.79,42.4,85.3,48.55,95.42,67.79,85.7,73,75.4,55.19,63.23,61.64,73,80.55,47.73,94.66,55,107.07l13-6.71a3.58,3.58,0,0,1,4.78,1.45l30.86,55.48a2.18,2.18,0,0,1-.93,3l-11.64,6.2,6.92,14,23.27-12.61,10.4,18.92,12.18-7.52-9.69-18.15,9.64-5.06,10.35,18.67,12.26-6.92L155.7,148.68C185.15,130.86,185.24,115,179.91,102.68Zm-72.75,7L93.66,87.16l17.63-9.66s11.45-5.67,17.7,4.09S125.6,98,125.6,98ZM149,134l-20.51,12.64-14.63-25,19.59-10.45s12.72-6.11,19.5,4.74S149,134,149,134Z"/><path class="cls-3" d="M23.68,179.76c28.86,48.87,95.61,62.88,149.09,31.3s73.46-96.8,44.61-145.67c-3.31-5.59-9.72-16.46-9.72-16.46S105.93-10.33,58.57,17.63C11,45.74-2.34,117.14,14,163.3,18.61,171.16,20.51,174.39,23.68,179.76Z"/><path class="cls-3" d="M181.21,68.86l-9.81,5.79,49.32,83.53A112.17,112.17,0,0,0,226,144.65ZM160,81.37l-9.81,5.8,56,94.86a117.16,117.16,0,0,0,7.2-10.23Zm-21.2,12.52L129,99.69l59.28,100.4q4.54-3.74,8.64-7.79Zm63.61-37.55-9.82,5.79,37.33,63.23a99.18,99.18,0,0,0-.06-22.52ZM54,144l-9.82,5.79,44.76,75.8a112.24,112.24,0,0,0,14.38,1.94Zm63.61-37.56-9.82,5.8,59.94,101.52c1.68-.89,3.39-1.69,5-2.67s3.19-2.09,4.78-3.13ZM23,162.28l27.46,46.51a100.12,100.12,0,0,0,19.69,10.93L32.8,156.49ZM75.2,131.45l-9.81,5.8,53.39,90.43a117.19,117.19,0,0,0,12.43-1.37Zm21.2-12.52-9.81,5.8,58.1,98.4q5.53-1.62,11-3.8Z"/><path class="cls-3" d="M14,163.3c28.86,48.87,95.61,62.88,149.09,31.3s73.46-96.8,44.61-145.67-95.6-62.88-149.09-31.3S-14.89,114.43,14,163.3Z"/><path class="cls-3" d="M22,158.53c26.45,44.8,87.64,57.64,136.67,28.7S226,98.49,199.59,53.7,112-3.94,62.92,25-4.41,113.74,22,158.53Z"/><ellipse class="cls-3" cx="110.81" cy="106.12" rx="90.21" ry="82.42" transform="translate(-38.56 71.07) rotate(-30.56)"/><path d="M172.91,95.68c-7.68-17.8-30.69-13-30.69-13,9.09-13.09,1.18-23.91,1.18-23.91-13.25-21-42.05-4.63-42.05-4.63L90.79,35.4,78.3,41.55,88.42,60.79,78.7,66,68.4,48.19,56.23,54.64,66,73.55,40.73,87.66,48,100.07l13-6.71a3.58,3.58,0,0,1,4.78,1.45l30.86,55.48a2.18,2.18,0,0,1-.93,3l-11.64,6.2,6.92,14,23.27-12.61,10.4,18.92,12.18-7.52-9.69-18.15,9.64-5.06,10.35,18.67,12.26-6.92L148.7,141.68C178.15,123.86,178.24,108,172.91,95.68Zm-72.75,7L86.66,80.16l17.63-9.66s11.45-5.67,17.7,4.09S118.6,91,118.6,91ZM142,127l-20.51,12.64-14.63-25,19.59-10.45s12.72-6.11,19.5,4.74S142,127,142,127Z"/></g></g></svg>