<svg xmlns="http://www.w3.org/2000/svg" viewBox="0 0 222.8 223.43"><defs><style>.cls-1{isolation:isolate;}.cls-2{mix-blend-mode:multiply;}.cls-3{fill:#666;}.cls-4{fill:#fff;}</style></defs><g class="cls-1"><g id="图层_2" data-name="图层 2"><g id="图层_6" data-name="图层 6"><g class="cls-2"><path class="cls-3" d="M178.53,30.86C139-4.56,75.45,1.85,36.68,45.16S-1.43,152.31,38.14,187.73l13.33,11.93S159,223.71,193.32,185.36c34.51-38.56,26.15-106-1.46-142.56Z" transform="translate(0 0)"/><path class="cls-3" d="M130.76,207.77q-10,.43-21.27,0a367.8,367.8,0,0,1-58.21-7.26l-.22,0-13.5-12.08C-2.31,152.69-3,88.19,36,44.58s103.21-50,143.08-14.37l13.45,12.06c13.94,18.45,23,45,24.2,71C218.11,142.21,210,168,194,185.94,182.16,199.14,160.94,206.45,130.76,207.77Zm-78.88-8.92c5.48,1.19,107.94,22.64,140.79-14.07,33.64-37.59,26.23-104.66-1.46-141.39L178,31.52C138.79-3.53,75.71,2.86,37.33,45.75S-.43,152,38.72,187.08Z" transform="translate(0 0)"/><path class="cls-3" d="M69.42,174.4l7.11-8L8.89,105.91A104.69,104.69,0,0,0,8,119.46Zm15.37-17.17,7.11-7.95L15.08,80.52a108.41,108.41,0,0,0-3.53,11.16Zm15.36-17.17,7.12-7.95L26,59.34q-3,4.6-5.5,9.4Zm-46.1,51.51,7.12-7.95L10,137.79a93.2,93.2,0,0,0,6.43,20.07ZM161.62,71.37l7.12-8L107.35,8.49A103.12,103.12,0,0,0,94,10.83Zm-46.1,51.52,7.11-8L40.42,41.35c-1.25,1.27-2.54,2.47-3.74,3.81s-2.25,2.76-3.38,4.14Zm68.59-76.64L146.44,12.54a93.51,93.51,0,0,0-20.66-4.17L177,54.2ZM146.26,88.54l7.11-8L80.14,15.05a109.09,109.09,0,0,0-10.71,4.74Zm-15.37,17.17L138,97.77,58.31,26.44c-3,2-5.89,4.18-8.73,6.51Z" transform="translate(0 0)"/><path class="cls-3" d="M54.12,192.8,15.67,158.39l-.08-.17A94.74,94.74,0,0,1,9.1,138l-.51-2.57L62.4,183.55Zm-37-35.46,36.87,33,6-6.64L11.38,140.23A92.73,92.73,0,0,0,17.11,157.34Zm52.38,18.29L7.16,119.86v-.39A104.2,104.2,0,0,1,8,105.8l.2-1.66,69.55,62.24ZM8.91,119.07l60.44,54.09,6-6.64L9.56,107.69A99.42,99.42,0,0,0,8.91,119.07Zm75.94,39.39L10.57,92l.14-.52a109.23,109.23,0,0,1,3.55-11.25L14.71,79l78.43,70.19ZM12.53,91.39,84.72,156l6-6.64L15.45,82C14.39,84.93,13.43,88,12.53,91.39Zm87.69,49.9L19.37,68.94l.32-.61c1.64-3.15,3.5-6.34,5.54-9.47l.55-.85,82.72,74ZM21.55,68.54l78.54,70.28,5.94-6.65L26.14,60.67C24.48,63.28,22.94,65.92,21.55,68.54Zm94,55.58L32.1,49.4l.53-.65,1.11-1.39c.72-.92,1.47-1.87,2.29-2.78s1.67-1.76,2.5-2.58c.43-.42.85-.83,1.26-1.26l.59-.6,83.49,74.73ZM34.51,49.2l80.94,72.45,6-6.64L40.45,42.56l-.69.68c-.81.81-1.65,1.64-2.43,2.51s-1.51,1.79-2.22,2.69ZM131,107l-82.72-74,.79-.65c2.89-2.37,5.85-4.58,8.8-6.55l.56-.38L139.24,97.7Zm-80-74,79.89,71.5,6-6.65L58.24,27.55C55.79,29.21,53.34,31,50.93,33Zm95.4,56.8L67.9,19.59,69,19a107.48,107.48,0,0,1,10.79-4.77l.5-.2,74.29,66.48ZM71,20l75.22,67.32,5.95-6.65L80,16.06C76.7,17.32,73.75,18.62,71,20Zm90.72,52.62L92.15,10.37,93.78,10a102.1,102.1,0,0,1,13.49-2.36l.38,0,.29.26,62,55.52ZM95.82,11.31l65.73,58.83,5.95-6.65L107.06,9.4A95.85,95.85,0,0,0,95.82,11.31Zm81.24,44.13L123.24,7.27l2.62.23a94.54,94.54,0,0,1,20.85,4.21l.18.06,38.45,34.41ZM128.37,9.51,176.92,53l6-6.65L146,13.32A93.31,93.31,0,0,0,128.37,9.51Z" transform="translate(0 0)"/><path class="cls-3" d="M191.86,42.8C152.28,7.38,88.78,13.78,50,57.09S11.9,164.24,51.47,199.66s103.09,29,141.85-14.3S231.44,78.21,191.86,42.8Z" transform="translate(0 0)"/><path class="cls-3" d="M116.91,223.33c-24.85,1.08-48.1-7-66-23C11,164.63,10.33,100.12,49.36,56.51s103.21-50,143.08-14.37h0C232.31,77.83,233,142.33,194,185.94c-18.89,21.11-44.17,34.24-71.18,37Q119.83,223.2,116.91,223.33Zm9.51-202.41c-27.36,1.2-55.12,13.7-75.76,36.76C12.28,100.57,12.9,164,52.05,199c19,17,44,24.82,70.56,22.15s51.46-15.6,70.06-36.38c38.38-42.89,37.76-106.29-1.39-141.33C173.17,27.24,150,19.9,126.42,20.92Z" transform="translate(0 0)"/><path class="cls-3" d="M186,49.33C149.73,16.86,91.52,22.73,56,62.44S21,160.66,57.32,193.12s94.49,26.6,130-13.11S222.29,81.8,186,49.33Z" transform="translate(0 0)"/><path class="cls-3" d="M117.31,214.89c-22.8,1-44.13-6.4-60.57-21.12C20.16,161,19.53,101.86,55.33,61.86,72.66,42.49,95.85,30.45,120.63,28s48.23,4.86,66,20.73S214.23,87,214.49,112s-9.15,49.28-26.49,68.64S147.48,212,122.7,214.5C120.9,214.68,119.1,214.82,117.31,214.89ZM126.1,29.31c-1.76.07-3.52.2-5.3.38C96.46,32.14,73.67,44,56.63,63,21.47,102.31,22,160.38,57.9,192.47c17.36,15.54,40.32,22.75,64.63,20.29s47.13-14.29,64.17-33.33,26.29-43,26-67.46-10-46.45-27.31-62C169.33,35.58,148.43,28.33,126.1,29.31Z" transform="translate(0 0)"/><path class="cls-3" d="M178,58.32C146.22,29.91,95.29,35,64.19,69.79s-30.57,85.94,1.17,114.35,82.69,23.27,113.78-11.48S209.71,86.73,178,58.32Z" transform="translate(0 0)"/><path class="cls-3" d="M117.86,203.29c-20,.88-38.67-5.61-53.08-18.5-15.54-13.91-24.22-33.6-24.44-55.45s8-43.17,23.2-60.14S99,41.69,120.75,39.5s42.26,4.26,57.8,18.17S202.77,91.26,203,113.11s-8,43.17-23.2,60.14-35.5,27.51-57.21,29.7C121,203.11,119.42,203.23,117.86,203.29Zm7.68-162.38q-2.3.09-4.62.33C99.65,43.38,79.74,53.73,64.84,70.37s-23,37.58-22.75,59S50.78,169.91,66,183.48s35.22,19.88,56.46,17.73,41.19-12.49,56.08-29.13,23-37.58,22.75-59S192.55,72.54,177.38,59C163.32,46.39,145.06,40.05,125.54,40.91Z" transform="translate(0 0)"/><path class="cls-3" d="M160,148.24,47.73,140l37-39.6L194.62,110.6ZM52,138.3l107.22,7.89,31.23-34-105-9.77Z" transform="translate(0 0)"/><path class="cls-3" d="M113.82,197.55,96.39,86.85l37-39,15.49,111.82ZM98.5,87.5l16.64,105.71L146.83,159,132,52.19Z" transform="translate(0 0)"/><rect class="cls-3" x="98.3" y="123.93" width="50.24" height="1.98" transform="translate(-52.12 129.87) rotate(-46.96)"/></g><path class="cls-4" d="M171.37,23.71C131.8-11.71,68.29-5.31,29.52,38S-8.59,145.15,31,180.57L44.32,192.5s107.52,24.06,141.85-14.3c34.51-38.56,26.14-106-1.46-142.56Z" transform="translate(0 0)"/><path d="M123.61,200.62q-10,.44-21.28,0a368,368,0,0,1-58.2-7.25l-.23-.05L30.4,181.22C-9.47,145.54-10.16,81,28.87,37.42S132.09-12.62,172,23.06L185.4,35.11c13.94,18.46,23,45,24.2,71,1.36,28.92-6.73,54.73-22.78,72.66C175,192,153.79,199.3,123.61,200.62ZM44.73,191.7c5.47,1.18,107.93,22.63,140.78-14.08C219.16,140,211.75,73,184.06,36.23L170.79,24.36C131.64-10.68,68.56-4.3,30.17,38.59s-37.75,106.29,1.4,141.33Z" transform="translate(0 0)"/><path class="cls-4" d="M62.26,167.24l7.12-8L1.73,98.75a104.94,104.94,0,0,0-.85,13.56Zm15.37-17.17,7.12-7.95L7.92,73.37A108.34,108.34,0,0,0,4.4,84.53ZM93,132.9l7.11-8L18.8,52.18c-2,3.08-3.83,6.21-5.49,9.4ZM46.9,184.41,54,176.46,2.8,130.63a94.41,94.41,0,0,0,6.43,20.08ZM154.47,64.22l7.11-7.95L100.2,1.33A103,103,0,0,0,86.82,3.68Zm-46.11,51.51,7.12-8L33.26,34.2C32,35.47,30.72,36.67,29.52,38s-2.25,2.76-3.37,4.14ZM177,39.1,139.29,5.39a93.62,93.62,0,0,0-20.66-4.17l51.21,45.83ZM139.1,81.39l7.12-8L73,7.9a110.17,110.17,0,0,0-10.7,4.73ZM123.73,98.56l7.12-8L51.16,19.29c-3,2-5.9,4.18-8.74,6.5Z" transform="translate(0 0)"/><path d="M47,185.65,8.51,151.24l-.07-.17A94.45,94.45,0,0,1,2,130.8l-.52-2.57L55.25,176.4ZM10,150.18l36.87,33,6-6.65L4.22,133.08A92.92,92.92,0,0,0,10,150.18Zm52.37,18.3L0,112.7v-.38A102.55,102.55,0,0,1,.87,98.65L1.07,97l69.54,62.24ZM1.75,111.91,62.19,166l6-6.65L2.41,100.53A97.48,97.48,0,0,0,1.75,111.91Zm76,39.4L3.42,84.82l.13-.51A110.13,110.13,0,0,1,7.1,73.06l.46-1.19L86,142.05ZM5.38,84.23l72.18,64.61,6-6.65L8.29,74.87C7.24,77.78,6.28,80.85,5.38,84.23Zm87.69,49.91L12.22,61.78l.31-.6C14.17,58,16,54.84,18.07,51.71l.56-.86,82.72,74ZM14.4,61.38l78.53,70.29L98.88,125,19,53.52C17.32,56.13,15.78,58.77,14.4,61.38Zm94,55.59L24.94,42.24l.53-.65c.38-.46.75-.92,1.11-1.39.73-.92,1.48-1.87,2.29-2.78s1.68-1.75,2.51-2.58l1.26-1.25.58-.6,83.49,74.72ZM27.35,42.05,108.3,114.5l5.94-6.65L33.3,35.4l-.69.69c-.82.8-1.66,1.63-2.44,2.5s-1.51,1.8-2.21,2.69ZM123.8,99.79l-82.72-74,.79-.65c2.89-2.37,5.85-4.57,8.8-6.55l.57-.38,80.84,72.36Zm-80-74,79.89,71.5,6-6.64L51.08,20.39C48.64,22.06,46.18,23.88,43.77,25.82Zm95.4,56.8L60.74,12.44l1.14-.58A107.45,107.45,0,0,1,72.67,7.08l.5-.19,74.28,66.48ZM63.82,12.84,139,80.15,145,73.51,72.8,8.91C69.55,10.17,66.59,11.46,63.82,12.84Zm90.72,52.61L85,3.21l1.63-.38A102.55,102.55,0,0,1,100.11.46l.38,0,.29.26,62,55.52ZM88.67,4.15,154.4,63l5.95-6.64L99.9,2.24A97.84,97.84,0,0,0,88.67,4.15ZM169.9,48.28,116.09.12l2.61.22a94.65,94.65,0,0,1,20.86,4.22l.17.05L178.18,39ZM121.21,2.36l48.56,43.45,5.94-6.64-36.87-33A93.12,93.12,0,0,0,121.21,2.36Z" transform="translate(0 0)"/><path class="cls-4" d="M184.71,35.64C145.13.22,81.62,6.62,42.85,49.94S4.74,157.08,44.32,192.5s103.08,29,141.85-14.3S224.28,71.06,184.71,35.64Z" transform="translate(0 0)"/><path d="M109.75,216.17c-24.84,1.09-48.1-7-66-23C3.86,157.47,3.17,93,42.2,49.36S145.42-.7,185.29,35h0c39.87,35.68,40.56,100.19,1.53,143.8-18.9,21.11-44.18,34.24-71.19,37C113.67,216,111.7,216.09,109.75,216.17Zm9.51-202.4C91.91,15,64.14,27.47,43.5,50.52,5.12,93.41,5.75,156.81,44.9,191.85c19,17,44,24.82,70.56,22.16s51.45-15.6,70.05-36.39c38.39-42.89,37.76-106.29-1.39-141.33C166,20.09,142.79,12.74,119.26,13.77Z" transform="translate(0 0)"/><path class="cls-4" d="M178.85,42.18c-36.27-32.47-94.49-26.6-130,13.1S13.89,153.5,50.17,186s94.49,26.59,130-13.11S215.13,74.64,178.85,42.18Z" transform="translate(0 0)"/><path d="M110.15,207.74c-22.79,1-44.13-6.41-60.57-21.12C13,153.88,12.37,94.7,48.17,54.7c17.34-19.37,40.53-31.41,65.3-33.91s48.24,4.87,66,20.73,27.63,38.34,27.89,63.27-9.15,49.28-26.48,68.65-40.53,31.41-65.3,33.91Q112.84,207.62,110.15,207.74Zm8.79-185.59c-1.76.08-3.52.21-5.29.38C89.31,25,66.52,36.83,49.48,55.87c-35.16,39.28-34.59,97.35,1.27,129.44,17.36,15.54,40.32,22.75,64.62,20.3s47.13-14.3,64.17-33.34,26.29-43,26-67.46-10-46.45-27.31-62C162.18,28.42,141.27,21.18,118.94,22.15Z" transform="translate(0 0)"/><path class="cls-4" d="M170.81,51.16C139.07,22.75,88.13,27.89,57,62.63S26.47,148.57,58.21,177,140.89,200.25,172,165.51,202.55,79.57,170.81,51.16Z" transform="translate(0 0)"/><path d="M110.7,196.14c-20,.87-38.67-5.61-53.07-18.51C42.09,163.73,33.41,144,33.18,122.19s8-43.18,23.2-60.14,35.51-27.52,57.21-29.71,42.27,4.26,57.8,18.17,24.22,33.6,24.45,55.44-8,43.18-23.2,60.14-35.5,27.52-57.21,29.71C113.85,196,112.27,196.07,110.7,196.14Zm7.69-162.39q-2.3.11-4.62.33C92.5,36.23,72.58,46.57,57.69,63.21s-23,37.58-22.76,59,8.7,40.58,23.86,54.16S94,196.2,115.25,194.06s41.19-12.49,56.08-29.13,23-37.58,22.76-59-8.69-40.58-23.86-54.16C156.17,39.23,137.9,32.9,118.39,33.75Z" transform="translate(0 0)"/><path d="M152.89,141.08,40.58,132.82l37-39.61,109.93,10.23Zm-108-9.94L152.07,139l31.23-34-105-9.76Z" transform="translate(0 0)"/><path d="M106.67,190.4,89.24,79.69l37-39L141.77,152.5Zm-15.32-110L108,186.05l31.69-34.21L124.88,45Z" transform="translate(0 0)"/><rect x="91.15" y="116.78" width="50.24" height="1.98" transform="translate(-49.16 122.37) rotate(-46.96)"/></g></g></g></svg>