<svg xmlns="http://www.w3.org/2000/svg" viewBox="0 0 199.28 153.74"><defs><style>.cls-1{isolation:isolate;}.cls-2{mix-blend-mode:multiply;}.cls-3{fill:#666;}.cls-3,.cls-4{stroke:#666;}.cls-3,.cls-5{stroke-miterlimit:10;stroke-width:1.7px;}.cls-4,.cls-6{fill:none;stroke-linecap:round;stroke-linejoin:round;stroke-width:1.93px;}.cls-5{fill:#fff;}.cls-5,.cls-6{stroke:#000;}</style></defs><g class="cls-1"><g id="图层_2" data-name="图层 2"><g id="图层_6" data-name="图层 6"><g class="cls-2"><path class="cls-3" d="M196.8,63.94c9.43,28.11-22.83,64.28-72.06,80.8s-96.77,7.13-106.21-21l-9-27S38,30.63,81.54,16c43.82-14.71,90.75-.3,106.21,21Z" transform="translate(0)"/><path class="cls-3" d="M56.68,151a100.4,100.4,0,0,0,10.52,1.41l-22-65.53-9,3ZM79,152.85c3.23,0,6.52-.19,9.89-.49L64.73,80.31l-9,3Zm21-2q4.67-.78,9.42-1.88L84.24,73.76l-9,3ZM31.51,140.67a53.56,53.56,0,0,0,12.26,6.59L25.7,93.41l-9,3Zm143.74-24.54a98.66,98.66,0,0,0,7.54-7.47l-20.5-61.09-9,3Zm-55.07,30c1.52-.46,3-.88,4.56-1.39s3-1.09,4.48-1.64L103.75,67.22l-9,3ZM172.77,44.06l18.08,53.85a54.24,54.24,0,0,0,5.8-12.65L181.81,41ZM157.92,129.2c2.87-1.79,5.58-3.66,8.18-5.58l-23.32-69.5-9,3Zm-18.44,9.74q4.46-2,8.65-4.19L123.27,60.67l-9,3Z" transform="translate(0)"/><path class="cls-3" d="M187.75,37c9.43,28.11-22.83,64.29-72,80.81s-96.78,7.12-106.21-21S32.32,32.52,81.54,16,178.32,8.88,187.75,37Z" transform="translate(0)"/><path class="cls-3" d="M180.32,39.48c8.65,25.76-20.92,58.93-66,74.07s-88.72,6.53-97.36-19.24S37.84,35.38,83,20.24,171.68,13.71,180.32,39.48Z" transform="translate(0)"/><path class="cls-3" d="M170.39,42.61c7.56,22.55-18.31,51.57-57.8,64.82S35,113.14,27.41,90.59,45.71,39,85.2,25.78,162.82,20.07,170.39,42.61Z" transform="translate(0)"/><polygon class="cls-4" points="41.65 62.08 85.14 46.99 156.21 71.47 114.3 87.38 41.65 62.08"/><polygon class="cls-4" points="141.75 26.86 98.44 42.48 58.59 106.21 101.18 92.22 141.75 26.86"/><line class="cls-4" x1="79.1" y1="74.57" x2="120.71" y2="59.76"/></g><path class="cls-5" d="M189.8,56.94c9.43,28.11-22.83,64.28-72.06,80.8s-96.77,7.13-106.21-21l-9-27S31,23.63,74.54,9c43.82-14.71,90.75-.3,106.21,21Z" transform="translate(0)"/><path class="cls-5" d="M49.68,144a100.4,100.4,0,0,0,10.52,1.41l-22-65.53-9,3ZM72,145.85c3.23,0,6.52-.19,9.89-.49L57.73,73.31l-9,3Zm21-2q4.67-.78,9.42-1.88L77.24,66.76l-9,3ZM24.51,133.67a53.56,53.56,0,0,0,12.26,6.59L18.7,86.41l-9,3Zm143.74-24.54a98.66,98.66,0,0,0,7.54-7.47l-20.5-61.09-9,3Zm-55.07,30c1.52-.46,3-.88,4.56-1.39s3-1.09,4.48-1.64L96.75,60.22l-9,3ZM165.77,37.06l18.08,53.85a54.24,54.24,0,0,0,5.8-12.65L174.81,34ZM150.92,122.2c2.87-1.79,5.58-3.66,8.18-5.58l-23.32-69.5-9,3Zm-18.44,9.74q4.46-2,8.65-4.19L116.27,53.67l-9,3Z" transform="translate(0)"/><path class="cls-5" d="M180.75,30c9.43,28.11-22.83,64.29-72,80.81s-96.78,7.12-106.21-21S25.32,25.52,74.54,9,171.32,1.88,180.75,30Z" transform="translate(0)"/><path class="cls-5" d="M173.32,32.48c8.65,25.76-20.92,58.93-66,74.07S18.56,113.08,9.92,87.31,30.84,28.38,76,13.24,164.68,6.71,173.32,32.48Z" transform="translate(0)"/><path class="cls-5" d="M163.39,35.61c7.56,22.55-18.31,51.57-57.8,64.82S28,106.14,20.41,83.59,38.71,32,78.2,18.78,155.82,13.07,163.39,35.61Z" transform="translate(0)"/><polygon class="cls-6" points="34.65 55.08 78.14 39.99 149.21 64.47 107.3 80.38 34.65 55.08"/><polygon class="cls-6" points="134.75 19.86 91.44 35.48 51.59 99.21 94.18 85.22 134.75 19.86"/><line class="cls-6" x1="72.1" y1="67.57" x2="113.71" y2="52.76"/></g></g></g></svg>