<svg xmlns="http://www.w3.org/2000/svg" viewBox="0 0 520.44 496.33"><g id="图层_2" data-name="图层 2"><g id="图层_6" data-name="图层 6"><path d="M180.79,496.33a2.63,2.63,0,0,1-.77-.12c-5.61-1.82-11.24-3.86-16.72-6.06a2.5,2.5,0,0,1,1.86-4.64c5.38,2.16,10.9,4.16,16.4,5.94a2.5,2.5,0,0,1-.77,4.88Zm188.67-11.75a2.5,2.5,0,0,1-1.06-4.77c5.23-2.45,10.45-5.11,15.5-7.92a2.5,2.5,0,1,1,2.42,4.37c-5.15,2.86-10.46,5.58-15.8,8.08A2.48,2.48,0,0,1,369.46,484.58Zm-221.34-1.37A2.47,2.47,0,0,1,147,483c-5.31-2.57-10.6-5.36-15.73-8.29a2.5,2.5,0,0,1,2.48-4.34c5,2.87,10.22,5.61,15.42,8.13a2.5,2.5,0,0,1-1.09,4.75Zm252.07-15.68a2.5,2.5,0,0,1-1.37-4.6c4.85-3.14,9.65-6.49,14.29-10a2.5,2.5,0,1,1,3,4c-4.72,3.54-9.62,6.95-14.56,10.16A2.5,2.5,0,0,1,400.19,467.53Zm-282.62-1.78a2.48,2.48,0,0,1-1.38-.42c-4.91-3.27-9.77-6.75-14.45-10.34a2.5,2.5,0,0,1,3-4c4.59,3.53,9.36,6.94,14.18,10.15a2.5,2.5,0,0,1-1.39,4.58Zm310.74-19.3a2.5,2.5,0,0,1-1.63-4.4c4.38-3.77,8.69-7.75,12.81-11.81A2.5,2.5,0,0,1,443,433.8c-4.2,4.14-8.59,8.19-13.06,12A2.47,2.47,0,0,1,428.31,446.45Zm77.11-115.79a2.64,2.64,0,0,1-.78-.12,2.5,2.5,0,0,1-1.6-3.15c1.78-5.5,3.4-11.13,4.8-16.74a2.5,2.5,0,1,1,4.85,1.21c-1.43,5.72-3.08,11.47-4.9,17.07A2.49,2.49,0,0,1,505.42,330.66Zm-491.33-3A2.5,2.5,0,0,1,11.7,326C10,320.32,8.37,314.55,7,308.81a2.5,2.5,0,0,1,4.87-1.15c1.33,5.63,2.88,11.28,4.59,16.8a2.5,2.5,0,0,1-1.64,3.13A2.43,2.43,0,0,1,14.09,327.71ZM514,296.55a3.13,3.13,0,0,1-.44,0,2.5,2.5,0,0,1-2-2.9c1-5.69,1.85-11.49,2.47-17.25a2.5,2.5,0,0,1,5,.54c-.64,5.87-1.48,11.79-2.51,17.59A2.5,2.5,0,0,1,514,296.55ZM6,293.49a2.5,2.5,0,0,1-2.46-2.09c-1-5.81-1.74-11.73-2.31-17.61a2.5,2.5,0,0,1,5-.48c.56,5.77,1.32,11.58,2.26,17.27a2.51,2.51,0,0,1-2.06,2.88A2.83,2.83,0,0,1,6,293.49Zm511.75-31.9h-.1a2.51,2.51,0,0,1-2.4-2.6c.14-3.4.21-6.85.21-10.27,0-2.37,0-4.77-.1-7.16l0-.6a2.5,2.5,0,0,1,2.42-2.58,2.53,2.53,0,0,1,2.58,2.42v.63c.07,2.42.11,4.88.11,7.29,0,3.48-.07,7-.21,10.47A2.5,2.5,0,0,1,517.73,261.59ZM2.61,258.49a2.51,2.51,0,0,1-2.5-2.43v-.31c-.07-2.43-.1-4.88-.1-7.3,0-3.37.07-6.79.2-10.15a2.5,2.5,0,1,1,5,.19c-.13,3.3-.19,6.65-.19,10,0,2.37,0,4.78.1,7.16v.31a2.5,2.5,0,0,1-2.43,2.57ZM516.7,225.82a2.5,2.5,0,0,1-2.49-2.26c-.56-5.76-1.32-11.57-2.27-17.27a2.5,2.5,0,0,1,4.93-.82c1,5.81,1.75,11.73,2.32,17.61a2.49,2.49,0,0,1-2.24,2.73ZM4,223.35l-.27,0a2.5,2.5,0,0,1-2.22-2.75C2.11,214.72,3,208.8,4,203a2.5,2.5,0,1,1,4.92.87c-1,5.69-1.83,11.49-2.45,17.25A2.49,2.49,0,0,1,4,223.35Zm462.35-127a2.48,2.48,0,0,1-2-1c-3.48-4.62-7.16-9.18-10.94-13.55a2.5,2.5,0,0,1,3.79-3.27c3.85,4.45,7.6,9.1,11.15,13.82a2.49,2.49,0,0,1-.5,3.5A2.46,2.46,0,0,1,466.32,96.33ZM55.71,94.25a2.5,2.5,0,0,1-2-4c3.6-4.68,7.4-9.29,11.3-13.72a2.5,2.5,0,1,1,3.75,3.31c-3.83,4.34-7.56,8.87-11.08,13.45A2.46,2.46,0,0,1,55.71,94.25ZM443.32,69.73a2.46,2.46,0,0,1-1.77-.74c-4.07-4.11-8.34-8.13-12.68-11.95a2.5,2.5,0,0,1,3.31-3.76c4.42,3.9,8.77,8,12.92,12.19a2.51,2.51,0,0,1,0,3.54A2.48,2.48,0,0,1,443.32,69.73ZM79,67.87a2.5,2.5,0,0,1-1.76-4.28c4.19-4.14,8.58-8.2,13-12.05a2.5,2.5,0,1,1,3.27,3.78c-4.38,3.78-8.68,7.76-12.79,11.83A2.5,2.5,0,0,1,79,67.87Zm338-21.39a2.46,2.46,0,0,1-1.52-.51c-4.59-3.52-9.36-6.93-14.18-10.13A2.5,2.5,0,0,1,404,31.67c4.92,3.27,9.78,6.74,14.46,10.33a2.5,2.5,0,0,1-1.52,4.48ZM105.59,44.89a2.5,2.5,0,0,1-1.51-4.5c4.72-3.54,9.62-7,14.55-10.17a2.5,2.5,0,0,1,2.73,4.19c-4.84,3.14-9.64,6.5-14.28,10A2.45,2.45,0,0,1,105.59,44.89ZM387.62,27a2.43,2.43,0,0,1-1.24-.33c-5-2.87-10.23-5.59-15.43-8.11a2.5,2.5,0,1,1,2.17-4.5c5.31,2.56,10.6,5.34,15.74,8.27A2.5,2.5,0,0,1,387.62,27ZM135.06,25.74a2.5,2.5,0,0,1-1.22-4.68c5.15-2.87,10.47-5.59,15.79-8.09a2.5,2.5,0,1,1,2.13,4.52c-5.22,2.46-10.44,5.13-15.49,7.94A2.51,2.51,0,0,1,135.06,25.74Zm220.86-14a2.52,2.52,0,0,1-.93-.18c-5.38-2.15-10.9-4.14-16.41-5.92A2.5,2.5,0,0,1,340.12.87c5.62,1.81,11.25,3.84,16.73,6a2.5,2.5,0,0,1-.93,4.82Zm-189.08-.92a2.5,2.5,0,0,1-.9-4.83c5.5-2.14,11.14-4.11,16.77-5.86a2.5,2.5,0,1,1,1.48,4.77c-5.52,1.72-11.05,3.65-16.44,5.75A2.62,2.62,0,0,1,166.84,10.81Z"/></g></g></svg>