<svg xmlns="http://www.w3.org/2000/svg" viewBox="0 0 93.2 24.16"><defs><style>.cls-1{fill:#000;}</style></defs><g id="图层_2" data-name="图层 2"><g id="Layer_3" data-name="Layer 3"><g id="图层_61" data-name="图层 61"><path class="cls-1" d="M9.71,11.81l5.83-9.59a1.41,1.41,0,0,0,.19-1.09,1.42,1.42,0,0,0-.65-.89,1.42,1.42,0,0,0-2,.47L8,9,3,.7A1.4,1.4,0,0,0,2.07.05,1.41,1.41,0,0,0,1,.24a1.42,1.42,0,0,0-.65.89A1.38,1.38,0,0,0,.52,2.21l5.83,9.6L.23,21.88A1.41,1.41,0,0,0,0,23a1.45,1.45,0,0,0,2.64.43L8,14.58l5.35,8.81a1.39,1.39,0,0,0,1.22.69,1.54,1.54,0,0,0,.77-.22A1.4,1.4,0,0,0,16,23a1.42,1.42,0,0,0-.18-1.08Z"/><path class="cls-1" d="M33.32,2A6.62,6.62,0,0,0,31.21.54,6.43,6.43,0,0,0,28.75,0H21.62a1.41,1.41,0,0,0-1,.43,1.43,1.43,0,0,0-.43,1.05,1.45,1.45,0,0,0,1.45,1.44h7a3.63,3.63,0,0,1,1.46.3,4.32,4.32,0,0,1,1.22.83,3.87,3.87,0,0,1,.83,1.23,3.55,3.55,0,0,1,.3,1.45,3.64,3.64,0,0,1-.3,1.49,3.83,3.83,0,0,1-.83,1.22,4.15,4.15,0,0,1-1.22.84,3.63,3.63,0,0,1-1.46.3h-7A1.45,1.45,0,0,0,20.17,12V22.63a1.45,1.45,0,0,0,.43,1.05,1.45,1.45,0,0,0,2,0,1.44,1.44,0,0,0,.42-1.05V13.47h5.69a6.39,6.39,0,0,0,2.46-.54,6.85,6.85,0,0,0,2.11-1.43,6.71,6.71,0,0,0,1.43-2.13,6.53,6.53,0,0,0,.54-2.64,6.43,6.43,0,0,0-.54-2.62A6.89,6.89,0,0,0,33.32,2Z"/><path class="cls-1" d="M51.85,21.3H42.49V1.53a1.43,1.43,0,0,0-.43-1,1.47,1.47,0,0,0-2,0,1.43,1.43,0,0,0-.43,1V22.72A1.4,1.4,0,0,0,40,23.77a1.43,1.43,0,0,0,1,.39H51.85a1.43,1.43,0,0,0,1-.39,1.4,1.4,0,0,0,.45-1.05,1.37,1.37,0,0,0-.45-1A1.43,1.43,0,0,0,51.85,21.3Z"/><path class="cls-1" d="M69.05.43a1.4,1.4,0,0,0-.43,1v15a4.94,4.94,0,0,1-.36,1.87,5.08,5.08,0,0,1-1,1.54,4.89,4.89,0,0,1-1.5,1,4.6,4.6,0,0,1-3.62,0,4.89,4.89,0,0,1-1.5-1,5,5,0,0,1-1-1.54,4.73,4.73,0,0,1-.37-1.87V1.45a1.41,1.41,0,0,0-.39-1,1.47,1.47,0,0,0-2.08,0,1.43,1.43,0,0,0-.42,1V16.56A7.73,7.73,0,0,0,57,19.38a7.51,7.51,0,0,0,1.63,2.45A7.84,7.84,0,0,0,61,23.46a7.25,7.25,0,0,0,3,.62,7.17,7.17,0,0,0,2.93-.62,8,8,0,0,0,2.41-1.63,7.64,7.64,0,0,0,1.62-2.45,7.73,7.73,0,0,0,.59-2.82V1.45a1.44,1.44,0,0,0-.42-1A1.46,1.46,0,0,0,69.05.43Z"/><path class="cls-1" d="M84.85,10.62h-.12a17.37,17.37,0,0,1-2.22-.51,8.64,8.64,0,0,1-1.94-.87,4.7,4.7,0,0,1-1.31-1.18,2.22,2.22,0,0,1-.43-1.37,2.5,2.5,0,0,1,.4-1.36A4.09,4.09,0,0,1,80.4,4.1a6.26,6.26,0,0,1,1.84-.86,8.5,8.5,0,0,1,4.45,0A7.22,7.22,0,0,1,88.47,4,4.54,4.54,0,0,1,89.69,5a2.76,2.76,0,0,1,.55,1.16s0,.06,0,.09a2.11,2.11,0,0,1,0,.21,1.27,1.27,0,0,1,0,.2,1.4,1.4,0,0,0,.45,1.05,1.5,1.5,0,0,0,2,0,1.4,1.4,0,0,0,.45-1.05,3.83,3.83,0,0,0-.11-.93,5.57,5.57,0,0,0-1-2.34,7.35,7.35,0,0,0-2-1.81A9.75,9.75,0,0,0,87.57.43a10.85,10.85,0,0,0-6.31.08,9.34,9.34,0,0,0-2.71,1.38A7,7,0,0,0,76.66,4a5.31,5.31,0,0,0-.72,2.68,5.42,5.42,0,0,0,2.39,4.48,13.76,13.76,0,0,0,6,2.33A11.18,11.18,0,0,1,89,15.1a2.8,2.8,0,0,1,1.3,2.33,2.61,2.61,0,0,1-.39,1.36A4.11,4.11,0,0,1,88.73,20a6.78,6.78,0,0,1-1.86.86,8.47,8.47,0,0,1-4.63,0A6.26,6.26,0,0,1,80.4,20a4,4,0,0,1-1.17-1.21,2.53,2.53,0,0,1-.4-1.36,1.42,1.42,0,0,0-.45-1.06,1.5,1.5,0,0,0-2,0,1.41,1.41,0,0,0-.44,1.06,5.27,5.27,0,0,0,.72,2.67,6.89,6.89,0,0,0,1.89,2.11,9.1,9.1,0,0,0,2.71,1.38,10.87,10.87,0,0,0,6.58,0,9.28,9.28,0,0,0,2.72-1.38,6.71,6.71,0,0,0,1.91-2.11,5.28,5.28,0,0,0,.73-2.67C93.2,14,90.39,11.7,84.85,10.62Z"/></g></g></g></svg>